<svg width="154" height="64" viewBox="0 0 154 64" fill="none" xmlns="http://www.w3.org/2000/svg">
<mask id="path-1-outside-1_88_2" maskUnits="userSpaceOnUse" x="1" y="5" width="133" height="39" fill="black">
<rect fill="white" x="1" y="5" width="133" height="39"/>
<path d="M6.45 35.42C5.67 35.42 4.94 35.17 4.26 34.67C3.6 34.15 3.06 33.34 2.64 32.24C2.24 31.12 2.04 29.67 2.04 27.89C2.04 26.69 2.15 25.46 2.37 24.2C2.61 22.94 2.96 21.73 3.42 20.57C3.88 19.41 4.46 18.38 5.16 17.48C5.86 16.56 6.68 15.83 7.62 15.29C8.58 14.75 9.65 14.48 10.83 14.48C11.77 14.48 12.59 14.67 13.29 15.05C13.99 15.43 14.58 15.91 15.06 16.49C15.1 16.09 15.13 15.63 15.15 15.11C15.17 14.57 15.18 14.02 15.18 13.46C15.18 12.66 15.16 11.87 15.12 11.09C15.08 10.29 15.01 9.58 14.91 8.96C14.81 8.32 14.68 7.85 14.52 7.55C14.74 7.35 15.05 7.19 15.45 7.07C15.87 6.95 16.23 6.89 16.53 6.89C17.23 6.89 17.75 7.13 18.09 7.61C18.45 8.09 18.63 8.96 18.63 10.22C18.63 11.16 18.54 12.25 18.36 13.49C18.2 14.71 18.01 16.04 17.79 17.48C17.57 18.92 17.37 20.41 17.19 21.95C17.03 23.49 16.95 25.04 16.95 26.6C16.95 28.3 17.04 29.74 17.22 30.92C17.42 32.08 17.8 33.14 18.36 34.1C18.06 34.48 17.73 34.76 17.37 34.94C17.03 35.12 16.68 35.21 16.32 35.21C15.44 35.21 14.79 34.65 14.37 33.53C13.97 32.39 13.77 30.82 13.77 28.82C13.77 28.14 13.79 27.52 13.83 26.96C13.89 26.4 13.95 25.85 14.01 25.31C13.31 27.29 12.51 29.04 11.61 30.56C10.73 32.08 9.83 33.27 8.91 34.13C8.01 34.99 7.19 35.42 6.45 35.42ZM7.47 32.24C7.91 32.24 8.42 31.94 9 31.34C9.6 30.72 10.21 29.91 10.83 28.91C11.45 27.89 12.04 26.76 12.6 25.52C13.16 24.28 13.64 23.02 14.04 21.74C14.44 20.44 14.7 19.23 14.82 18.11C14.1 17.57 13.42 17.18 12.78 16.94C12.14 16.68 11.53 16.55 10.95 16.55C10.05 16.55 9.24 16.83 8.52 17.39C7.8 17.95 7.19 18.72 6.69 19.7C6.21 20.66 5.84 21.78 5.58 23.06C5.32 24.34 5.19 25.7 5.19 27.14C5.19 28.08 5.27 28.94 5.43 29.72C5.59 30.48 5.84 31.09 6.18 31.55C6.52 32.01 6.95 32.24 7.47 32.24ZM26.1101 35.21C25.4101 35.21 24.8401 34.93 24.4001 34.37C23.9801 33.81 23.7701 32.77 23.7701 31.25C23.7701 30.07 23.8701 28.85 24.0701 27.59C24.2901 26.33 24.5001 25.02 24.7001 23.66C24.9201 22.3 25.0301 20.87 25.0301 19.37C25.0301 18.73 25.0001 18.07 24.9401 17.39C24.8801 16.69 24.7001 16.06 24.4001 15.5C24.6201 15.28 24.9401 15.11 25.3601 14.99C25.7801 14.87 26.1301 14.81 26.4101 14.81C26.9301 14.81 27.3901 14.98 27.7901 15.32C28.2101 15.66 28.4201 16.25 28.4201 17.09C28.4201 17.67 28.3201 18.58 28.1201 19.82C27.9401 21.06 27.7501 22.41 27.5501 23.87C28.3101 21.85 29.1301 20.14 30.0101 18.74C30.8901 17.34 31.7301 16.28 32.5301 15.56C33.3301 14.84 34.0001 14.48 34.5401 14.48C34.9201 14.48 35.2201 14.61 35.4401 14.87C35.6601 15.13 35.8101 15.43 35.8901 15.77C35.9901 16.11 36.0401 16.42 36.0401 16.7C36.0401 16.94 36.0201 17.2 35.9801 17.48C35.9401 17.76 35.9001 18 35.8601 18.2C35.5601 18.14 35.2801 18.11 35.0201 18.11C34.2001 18.11 33.3901 18.4 32.5901 18.98C31.8101 19.56 31.0801 20.32 30.4001 21.26C29.7401 22.18 29.1501 23.17 28.6301 24.23C28.1301 25.29 27.7401 26.32 27.4601 27.32C27.1801 28.3 27.0401 29.12 27.0401 29.78C27.0401 30.68 27.1001 31.5 27.2201 32.24C27.3601 32.96 27.6801 33.59 28.1801 34.13C27.8001 34.57 27.4201 34.86 27.0401 35C26.6601 35.14 26.3501 35.21 26.1101 35.21ZM41.7527 35.42C40.3927 35.42 39.3127 34.75 38.5127 33.41C37.7327 32.07 37.3427 30.23 37.3427 27.89C37.3427 26.01 37.5627 24.26 38.0027 22.64C38.4627 21 39.0927 19.57 39.8927 18.35C40.6927 17.13 41.6227 16.18 42.6827 15.5C43.7427 14.82 44.8927 14.48 46.1327 14.48C47.8327 14.48 49.2427 15.15 50.3627 16.49C50.5227 15.87 50.7227 15.43 50.9627 15.17C51.2227 14.91 51.5727 14.78 52.0127 14.78C52.6327 14.78 53.1727 15.04 53.6327 15.56C53.4527 16.04 53.2827 16.71 53.1227 17.57C52.9627 18.41 52.8227 19.36 52.7027 20.42C52.5827 21.46 52.4827 22.55 52.4027 23.69C52.3427 24.81 52.3127 25.89 52.3127 26.93C52.3127 28.73 52.4127 30.17 52.6127 31.25C52.8327 32.31 53.1927 33.26 53.6927 34.1C53.1127 34.84 52.4327 35.21 51.6527 35.21C50.8127 35.21 50.1727 34.67 49.7327 33.59C49.2927 32.51 49.0727 30.94 49.0727 28.88C49.0727 28.58 49.0827 28.22 49.1027 27.8C49.1427 27.36 49.1827 26.92 49.2227 26.48C49.2627 26.02 49.2927 25.63 49.3127 25.31C48.6327 27.23 47.8427 28.96 46.9427 30.5C46.0627 32.02 45.1627 33.22 44.2427 34.1C43.3427 34.98 42.5127 35.42 41.7527 35.42ZM42.7727 32.24C43.2327 32.24 43.7527 31.94 44.3327 31.34C44.9127 30.72 45.5127 29.9 46.1327 28.88C46.7727 27.86 47.3627 26.73 47.9027 25.49C48.4627 24.25 48.9427 22.99 49.3427 21.71C49.7427 20.43 50.0027 19.23 50.1227 18.11C48.7627 17.07 47.4727 16.55 46.2527 16.55C45.1327 16.55 44.1327 17 43.2527 17.9C42.3927 18.8 41.7127 20.05 41.2127 21.65C40.7327 23.23 40.4927 25.06 40.4927 27.14C40.4927 28.72 40.6927 29.97 41.0927 30.89C41.5127 31.79 42.0727 32.24 42.7727 32.24ZM64.2684 42.62C63.7684 42.62 63.2384 42.58 62.6784 42.5C62.1184 42.42 61.5884 42.28 61.0884 42.08C60.5884 41.88 60.1784 41.6 59.8584 41.24C59.5584 40.88 59.4084 40.41 59.4084 39.83C59.4084 39.23 59.5284 38.73 59.7684 38.33C60.0284 37.93 60.2684 37.63 60.4884 37.43C61.0084 38.29 61.6884 39 62.5284 39.56C63.3684 40.12 64.3384 40.4 65.4384 40.4C66.4384 40.4 67.2184 40.11 67.7784 39.53C68.3584 38.95 68.7884 38.05 69.0684 36.83C69.3484 35.63 69.5384 34.08 69.6384 32.18C69.7584 30.28 69.8484 28 69.9084 25.34C69.2084 27.32 68.4084 29.07 67.5084 30.59C66.6284 32.09 65.7284 33.27 64.8084 34.13C63.9084 34.99 63.0884 35.42 62.3484 35.42C61.5684 35.42 60.8384 35.17 60.1584 34.67C59.4984 34.15 58.9584 33.34 58.5384 32.24C58.1384 31.12 57.9384 29.67 57.9384 27.89C57.9384 26.69 58.0484 25.46 58.2684 24.2C58.5084 22.94 58.8584 21.73 59.3184 20.57C59.7784 19.41 60.3584 18.38 61.0584 17.48C61.7584 16.56 62.5784 15.83 63.5184 15.29C64.4784 14.75 65.5484 14.48 66.7284 14.48C67.6684 14.48 68.4884 14.67 69.1884 15.05C69.8884 15.43 70.4784 15.91 70.9584 16.49C71.1184 15.83 71.3284 15.38 71.5884 15.14C71.8484 14.9 72.1884 14.78 72.6084 14.78C72.9484 14.78 73.3084 14.84 73.6884 14.96C74.0884 15.06 74.4184 15.21 74.6784 15.41C74.4784 15.77 74.2584 16.2 74.0184 16.7C73.7784 17.2 73.5484 17.74 73.3284 18.32C73.2484 19.06 73.1684 19.96 73.0884 21.02C73.0284 22.08 72.9784 23.38 72.9384 24.92C72.8984 26.44 72.8784 28.29 72.8784 30.47C72.8784 32.95 72.5184 35.1 71.7984 36.92C71.0984 38.74 70.0984 40.14 68.7984 41.12C67.5184 42.12 66.0084 42.62 64.2684 42.62ZM63.3684 32.24C63.8084 32.24 64.3184 31.94 64.8984 31.34C65.4984 30.72 66.1084 29.91 66.7284 28.91C67.3484 27.89 67.9384 26.76 68.4984 25.52C69.0584 24.28 69.5384 23.02 69.9384 21.74C70.3384 20.44 70.5984 19.23 70.7184 18.11C69.9984 17.57 69.3184 17.18 68.6784 16.94C68.0384 16.68 67.4284 16.55 66.8484 16.55C65.9484 16.55 65.1384 16.83 64.4184 17.39C63.6984 17.95 63.0884 18.72 62.5884 19.7C62.1084 20.66 61.7384 21.78 61.4784 23.06C61.2184 24.34 61.0884 25.7 61.0884 27.14C61.0884 28.08 61.1684 28.94 61.3284 29.72C61.4884 30.48 61.7384 31.09 62.0784 31.55C62.4184 32.01 62.8484 32.24 63.3684 32.24ZM90.6621 35.21C89.8621 35.21 89.3421 34.93 89.1021 34.37C88.8621 33.81 88.7421 33.09 88.7421 32.21C88.7421 31.15 88.8321 29.94 89.0121 28.58C89.2121 27.22 89.4021 25.77 89.5821 24.23C89.7821 22.67 89.8821 21.1 89.8821 19.52C89.8821 18.8 89.8521 18.1 89.7921 17.42C89.7321 16.72 89.5521 16.08 89.2521 15.5C89.4721 15.28 89.7821 15.11 90.1821 14.99C90.6021 14.87 90.9521 14.81 91.2321 14.81C91.9121 14.81 92.4221 15.04 92.7621 15.5C93.1221 15.96 93.3021 16.78 93.3021 17.96C93.3021 18.98 93.2121 20.13 93.0321 21.41C92.8521 22.69 92.6521 23.92 92.4321 25.1C92.9121 23.9 93.4221 22.68 93.9621 21.44C94.5021 20.2 95.0721 19.07 95.6721 18.05C96.2921 17.01 96.9221 16.18 97.5621 15.56C98.2221 14.92 98.8921 14.6 99.5721 14.6C100.492 14.6 101.182 14.86 101.642 15.38C102.122 15.88 102.442 16.53 102.602 17.33C102.782 18.13 102.872 18.95 102.872 19.79C102.872 20.47 102.862 21.06 102.842 21.56C102.822 22.06 102.782 22.58 102.722 23.12C102.682 23.66 102.602 24.32 102.482 25.1C102.942 23.86 103.442 22.62 103.982 21.38C104.522 20.14 105.092 19.01 105.692 17.99C106.292 16.97 106.922 16.15 107.582 15.53C108.262 14.91 108.942 14.6 109.622 14.6C110.542 14.6 111.232 14.86 111.692 15.38C112.172 15.88 112.492 16.53 112.652 17.33C112.832 18.13 112.922 18.95 112.922 19.79C112.922 21.27 112.802 22.71 112.562 24.11C112.342 25.49 112.232 26.92 112.232 28.4C112.232 28.98 112.262 29.64 112.322 30.38C112.402 31.12 112.532 31.83 112.712 32.51C112.912 33.17 113.192 33.71 113.552 34.13C113.212 34.51 112.862 34.79 112.502 34.97C112.162 35.13 111.822 35.21 111.482 35.21C110.662 35.21 110.042 34.71 109.622 33.71C109.202 32.69 108.992 31.25 108.992 29.39C108.992 28.11 109.072 26.87 109.232 25.67C109.392 24.47 109.552 23.38 109.712 22.4C109.872 21.4 109.952 20.59 109.952 19.97C109.952 19.25 109.852 18.71 109.652 18.35C109.452 17.97 109.052 17.78 108.452 17.78C108.052 17.78 107.622 18.04 107.162 18.56C106.702 19.06 106.232 19.74 105.752 20.6C105.272 21.46 104.812 22.42 104.372 23.48C103.932 24.52 103.532 25.58 103.172 26.66C102.832 27.74 102.562 28.76 102.362 29.72C102.162 30.66 102.062 31.47 102.062 32.15C102.062 32.77 102.112 33.32 102.212 33.8C102.332 34.28 102.452 34.61 102.572 34.79C102.192 34.93 101.852 35.03 101.552 35.09C101.252 35.17 100.972 35.21 100.712 35.21C99.9121 35.21 99.3921 34.93 99.1521 34.37C98.9121 33.81 98.7921 33.09 98.7921 32.21C98.7921 31.15 98.8821 29.98 99.0621 28.7C99.2621 27.4 99.4521 26.02 99.6321 24.56C99.8121 23.08 99.9021 21.55 99.9021 19.97C99.9021 19.25 99.8021 18.71 99.6021 18.35C99.4021 17.97 99.0121 17.78 98.4321 17.78C98.0321 17.78 97.6021 18.04 97.1421 18.56C96.6821 19.06 96.2021 19.74 95.7021 20.6C95.2221 21.46 94.7621 22.42 94.3221 23.48C93.8821 24.52 93.4821 25.58 93.1221 26.66C92.7821 27.74 92.5121 28.76 92.3121 29.72C92.1121 30.66 92.0121 31.47 92.0121 32.15C92.0121 32.77 92.0621 33.32 92.1621 33.8C92.2821 34.28 92.4021 34.61 92.5221 34.79C92.1421 34.93 91.8021 35.03 91.5021 35.09C91.2021 35.17 90.9221 35.21 90.6621 35.21ZM124.995 35.51C123.295 35.51 121.905 35.14 120.825 34.4C119.745 33.66 118.945 32.66 118.425 31.4C117.925 30.14 117.675 28.75 117.675 27.23C117.675 26.07 117.815 24.9 118.095 23.72C118.395 22.52 118.815 21.37 119.355 20.27C119.895 19.17 120.565 18.19 121.365 17.33C122.165 16.45 123.065 15.76 124.065 15.26C125.085 14.74 126.205 14.48 127.425 14.48C129.025 14.48 130.205 14.88 130.965 15.68C131.725 16.48 132.105 17.44 132.105 18.56C132.105 19.44 131.885 20.35 131.445 21.29C131.025 22.21 130.395 23.07 129.555 23.87C128.735 24.67 127.735 25.32 126.555 25.82C125.375 26.32 124.035 26.57 122.535 26.57C121.995 26.57 121.455 26.54 120.915 26.48C120.955 28.72 121.375 30.42 122.175 31.58C122.975 32.72 124.105 33.29 125.565 33.29C126.565 33.29 127.445 33.05 128.205 32.57C128.965 32.07 129.585 31.3 130.065 30.26C130.305 30.48 130.485 30.75 130.605 31.07C130.725 31.37 130.785 31.66 130.785 31.94C130.785 32.56 130.595 33.1 130.215 33.56C129.835 34 129.345 34.37 128.745 34.67C128.165 34.95 127.535 35.16 126.855 35.3C126.195 35.44 125.575 35.51 124.995 35.51ZM122.325 24.65C123.785 24.65 125.005 24.39 125.985 23.87C126.965 23.35 127.705 22.7 128.205 21.92C128.705 21.12 128.955 20.33 128.955 19.55C128.955 18.77 128.715 18.11 128.235 17.57C127.755 17.01 127.015 16.73 126.015 16.73C125.115 16.73 124.355 16.99 123.735 17.51C123.135 18.01 122.645 18.67 122.265 19.49C121.885 20.29 121.595 21.14 121.395 22.04C121.195 22.94 121.055 23.78 120.975 24.56C121.455 24.62 121.905 24.65 122.325 24.65Z"/>
</mask>
<g filter="url(#filter0_i_88_2)">
<path d="M6.45 35.42C5.67 35.42 4.94 35.17 4.26 34.67C3.6 34.15 3.06 33.34 2.64 32.24C2.24 31.12 2.04 29.67 2.04 27.89C2.04 26.69 2.15 25.46 2.37 24.2C2.61 22.94 2.96 21.73 3.42 20.57C3.88 19.41 4.46 18.38 5.16 17.48C5.86 16.56 6.68 15.83 7.62 15.29C8.58 14.75 9.65 14.48 10.83 14.48C11.77 14.48 12.59 14.67 13.29 15.05C13.99 15.43 14.58 15.91 15.06 16.49C15.1 16.09 15.13 15.63 15.15 15.11C15.17 14.57 15.18 14.02 15.18 13.46C15.18 12.66 15.16 11.87 15.12 11.09C15.08 10.29 15.01 9.58 14.91 8.96C14.81 8.32 14.68 7.85 14.52 7.55C14.74 7.35 15.05 7.19 15.45 7.07C15.87 6.95 16.23 6.89 16.53 6.89C17.23 6.89 17.75 7.13 18.09 7.61C18.45 8.09 18.63 8.96 18.63 10.22C18.63 11.16 18.54 12.25 18.36 13.49C18.2 14.71 18.01 16.04 17.79 17.48C17.57 18.92 17.37 20.41 17.19 21.95C17.03 23.49 16.95 25.04 16.95 26.6C16.95 28.3 17.04 29.74 17.22 30.92C17.42 32.08 17.8 33.14 18.36 34.1C18.06 34.48 17.73 34.76 17.37 34.94C17.03 35.12 16.68 35.21 16.32 35.21C15.44 35.21 14.79 34.65 14.37 33.53C13.97 32.39 13.77 30.82 13.77 28.82C13.77 28.14 13.79 27.52 13.83 26.96C13.89 26.4 13.95 25.85 14.01 25.31C13.31 27.29 12.51 29.04 11.61 30.56C10.73 32.08 9.83 33.27 8.91 34.13C8.01 34.99 7.19 35.42 6.45 35.42ZM7.47 32.24C7.91 32.24 8.42 31.94 9 31.34C9.6 30.72 10.21 29.91 10.83 28.91C11.45 27.89 12.04 26.76 12.6 25.52C13.16 24.28 13.64 23.02 14.04 21.74C14.44 20.44 14.7 19.23 14.82 18.11C14.1 17.57 13.42 17.18 12.78 16.94C12.14 16.68 11.53 16.55 10.95 16.55C10.05 16.55 9.24 16.83 8.52 17.39C7.8 17.95 7.19 18.72 6.69 19.7C6.21 20.66 5.84 21.78 5.58 23.06C5.32 24.34 5.19 25.7 5.19 27.14C5.19 28.08 5.27 28.94 5.43 29.72C5.59 30.48 5.84 31.09 6.18 31.55C6.52 32.01 6.95 32.24 7.47 32.24ZM26.1101 35.21C25.4101 35.21 24.8401 34.93 24.4001 34.37C23.9801 33.81 23.7701 32.77 23.7701 31.25C23.7701 30.07 23.8701 28.85 24.0701 27.59C24.2901 26.33 24.5001 25.02 24.7001 23.66C24.9201 22.3 25.0301 20.87 25.0301 19.37C25.0301 18.73 25.0001 18.07 24.9401 17.39C24.8801 16.69 24.7001 16.06 24.4001 15.5C24.6201 15.28 24.9401 15.11 25.3601 14.99C25.7801 14.87 26.1301 14.81 26.4101 14.81C26.9301 14.81 27.3901 14.98 27.7901 15.32C28.2101 15.66 28.4201 16.25 28.4201 17.09C28.4201 17.67 28.3201 18.58 28.1201 19.82C27.9401 21.06 27.7501 22.41 27.5501 23.87C28.3101 21.85 29.1301 20.14 30.0101 18.74C30.8901 17.34 31.7301 16.28 32.5301 15.56C33.3301 14.84 34.0001 14.48 34.5401 14.48C34.9201 14.48 35.2201 14.61 35.4401 14.87C35.6601 15.13 35.8101 15.43 35.8901 15.77C35.9901 16.11 36.0401 16.42 36.0401 16.7C36.0401 16.94 36.0201 17.2 35.9801 17.48C35.9401 17.76 35.9001 18 35.8601 18.2C35.5601 18.14 35.2801 18.11 35.0201 18.11C34.2001 18.11 33.3901 18.4 32.5901 18.98C31.8101 19.56 31.0801 20.32 30.4001 21.26C29.7401 22.18 29.1501 23.17 28.6301 24.23C28.1301 25.29 27.7401 26.32 27.4601 27.32C27.1801 28.3 27.0401 29.12 27.0401 29.78C27.0401 30.68 27.1001 31.5 27.2201 32.24C27.3601 32.96 27.6801 33.59 28.1801 34.13C27.8001 34.57 27.4201 34.86 27.0401 35C26.6601 35.14 26.3501 35.21 26.1101 35.21ZM41.7527 35.42C40.3927 35.42 39.3127 34.75 38.5127 33.41C37.7327 32.07 37.3427 30.23 37.3427 27.89C37.3427 26.01 37.5627 24.26 38.0027 22.64C38.4627 21 39.0927 19.57 39.8927 18.35C40.6927 17.13 41.6227 16.18 42.6827 15.5C43.7427 14.82 44.8927 14.48 46.1327 14.48C47.8327 14.48 49.2427 15.15 50.3627 16.49C50.5227 15.87 50.7227 15.43 50.9627 15.17C51.2227 14.91 51.5727 14.78 52.0127 14.78C52.6327 14.78 53.1727 15.04 53.6327 15.56C53.4527 16.04 53.2827 16.71 53.1227 17.57C52.9627 18.41 52.8227 19.36 52.7027 20.42C52.5827 21.46 52.4827 22.55 52.4027 23.69C52.3427 24.81 52.3127 25.89 52.3127 26.93C52.3127 28.73 52.4127 30.17 52.6127 31.25C52.8327 32.31 53.1927 33.26 53.6927 34.1C53.1127 34.84 52.4327 35.21 51.6527 35.21C50.8127 35.21 50.1727 34.67 49.7327 33.59C49.2927 32.51 49.0727 30.94 49.0727 28.88C49.0727 28.58 49.0827 28.22 49.1027 27.8C49.1427 27.36 49.1827 26.92 49.2227 26.48C49.2627 26.02 49.2927 25.63 49.3127 25.31C48.6327 27.23 47.8427 28.96 46.9427 30.5C46.0627 32.02 45.1627 33.22 44.2427 34.1C43.3427 34.98 42.5127 35.42 41.7527 35.42ZM42.7727 32.24C43.2327 32.24 43.7527 31.94 44.3327 31.34C44.9127 30.72 45.5127 29.9 46.1327 28.88C46.7727 27.86 47.3627 26.73 47.9027 25.49C48.4627 24.25 48.9427 22.99 49.3427 21.71C49.7427 20.43 50.0027 19.23 50.1227 18.11C48.7627 17.07 47.4727 16.55 46.2527 16.55C45.1327 16.55 44.1327 17 43.2527 17.9C42.3927 18.8 41.7127 20.05 41.2127 21.65C40.7327 23.23 40.4927 25.06 40.4927 27.14C40.4927 28.72 40.6927 29.97 41.0927 30.89C41.5127 31.79 42.0727 32.24 42.7727 32.24ZM64.2684 42.62C63.7684 42.62 63.2384 42.58 62.6784 42.5C62.1184 42.42 61.5884 42.28 61.0884 42.08C60.5884 41.88 60.1784 41.6 59.8584 41.24C59.5584 40.88 59.4084 40.41 59.4084 39.83C59.4084 39.23 59.5284 38.73 59.7684 38.33C60.0284 37.93 60.2684 37.63 60.4884 37.43C61.0084 38.29 61.6884 39 62.5284 39.56C63.3684 40.12 64.3384 40.4 65.4384 40.4C66.4384 40.4 67.2184 40.11 67.7784 39.53C68.3584 38.95 68.7884 38.05 69.0684 36.83C69.3484 35.63 69.5384 34.08 69.6384 32.18C69.7584 30.28 69.8484 28 69.9084 25.34C69.2084 27.32 68.4084 29.07 67.5084 30.59C66.6284 32.09 65.7284 33.27 64.8084 34.13C63.9084 34.99 63.0884 35.42 62.3484 35.42C61.5684 35.42 60.8384 35.17 60.1584 34.67C59.4984 34.15 58.9584 33.34 58.5384 32.24C58.1384 31.12 57.9384 29.67 57.9384 27.89C57.9384 26.69 58.0484 25.46 58.2684 24.2C58.5084 22.94 58.8584 21.73 59.3184 20.57C59.7784 19.41 60.3584 18.38 61.0584 17.48C61.7584 16.56 62.5784 15.83 63.5184 15.29C64.4784 14.75 65.5484 14.48 66.7284 14.48C67.6684 14.48 68.4884 14.67 69.1884 15.05C69.8884 15.43 70.4784 15.91 70.9584 16.49C71.1184 15.83 71.3284 15.38 71.5884 15.14C71.8484 14.9 72.1884 14.78 72.6084 14.78C72.9484 14.78 73.3084 14.84 73.6884 14.96C74.0884 15.06 74.4184 15.21 74.6784 15.41C74.4784 15.77 74.2584 16.2 74.0184 16.7C73.7784 17.2 73.5484 17.74 73.3284 18.32C73.2484 19.06 73.1684 19.96 73.0884 21.02C73.0284 22.08 72.9784 23.38 72.9384 24.92C72.8984 26.44 72.8784 28.29 72.8784 30.47C72.8784 32.95 72.5184 35.1 71.7984 36.92C71.0984 38.74 70.0984 40.14 68.7984 41.12C67.5184 42.12 66.0084 42.62 64.2684 42.62ZM63.3684 32.24C63.8084 32.24 64.3184 31.94 64.8984 31.34C65.4984 30.72 66.1084 29.91 66.7284 28.91C67.3484 27.89 67.9384 26.76 68.4984 25.52C69.0584 24.28 69.5384 23.02 69.9384 21.74C70.3384 20.44 70.5984 19.23 70.7184 18.11C69.9984 17.57 69.3184 17.18 68.6784 16.94C68.0384 16.68 67.4284 16.55 66.8484 16.55C65.9484 16.55 65.1384 16.83 64.4184 17.39C63.6984 17.95 63.0884 18.72 62.5884 19.7C62.1084 20.66 61.7384 21.78 61.4784 23.06C61.2184 24.34 61.0884 25.7 61.0884 27.14C61.0884 28.08 61.1684 28.94 61.3284 29.72C61.4884 30.48 61.7384 31.09 62.0784 31.55C62.4184 32.01 62.8484 32.24 63.3684 32.24ZM90.6621 35.21C89.8621 35.21 89.3421 34.93 89.1021 34.37C88.8621 33.81 88.7421 33.09 88.7421 32.21C88.7421 31.15 88.8321 29.94 89.0121 28.58C89.2121 27.22 89.4021 25.77 89.5821 24.23C89.7821 22.67 89.8821 21.1 89.8821 19.52C89.8821 18.8 89.8521 18.1 89.7921 17.42C89.7321 16.72 89.5521 16.08 89.2521 15.5C89.4721 15.28 89.7821 15.11 90.1821 14.99C90.6021 14.87 90.9521 14.81 91.2321 14.81C91.9121 14.81 92.4221 15.04 92.7621 15.5C93.1221 15.96 93.3021 16.78 93.3021 17.96C93.3021 18.98 93.2121 20.13 93.0321 21.41C92.8521 22.69 92.6521 23.92 92.4321 25.1C92.9121 23.9 93.4221 22.68 93.9621 21.44C94.5021 20.2 95.0721 19.07 95.6721 18.05C96.2921 17.01 96.9221 16.18 97.5621 15.56C98.2221 14.92 98.8921 14.6 99.5721 14.6C100.492 14.6 101.182 14.86 101.642 15.38C102.122 15.88 102.442 16.53 102.602 17.33C102.782 18.13 102.872 18.95 102.872 19.79C102.872 20.47 102.862 21.06 102.842 21.56C102.822 22.06 102.782 22.58 102.722 23.12C102.682 23.66 102.602 24.32 102.482 25.1C102.942 23.86 103.442 22.62 103.982 21.38C104.522 20.14 105.092 19.01 105.692 17.99C106.292 16.97 106.922 16.15 107.582 15.53C108.262 14.91 108.942 14.6 109.622 14.6C110.542 14.6 111.232 14.86 111.692 15.38C112.172 15.88 112.492 16.53 112.652 17.33C112.832 18.13 112.922 18.95 112.922 19.79C112.922 21.27 112.802 22.71 112.562 24.11C112.342 25.49 112.232 26.92 112.232 28.4C112.232 28.98 112.262 29.64 112.322 30.38C112.402 31.12 112.532 31.83 112.712 32.51C112.912 33.17 113.192 33.71 113.552 34.13C113.212 34.51 112.862 34.79 112.502 34.97C112.162 35.13 111.822 35.21 111.482 35.21C110.662 35.21 110.042 34.71 109.622 33.71C109.202 32.69 108.992 31.25 108.992 29.39C108.992 28.11 109.072 26.87 109.232 25.67C109.392 24.47 109.552 23.38 109.712 22.4C109.872 21.4 109.952 20.59 109.952 19.97C109.952 19.25 109.852 18.71 109.652 18.35C109.452 17.97 109.052 17.78 108.452 17.78C108.052 17.78 107.622 18.04 107.162 18.56C106.702 19.06 106.232 19.74 105.752 20.6C105.272 21.46 104.812 22.42 104.372 23.48C103.932 24.52 103.532 25.58 103.172 26.66C102.832 27.74 102.562 28.76 102.362 29.72C102.162 30.66 102.062 31.47 102.062 32.15C102.062 32.77 102.112 33.32 102.212 33.8C102.332 34.28 102.452 34.61 102.572 34.79C102.192 34.93 101.852 35.03 101.552 35.09C101.252 35.17 100.972 35.21 100.712 35.21C99.9121 35.21 99.3921 34.93 99.1521 34.37C98.9121 33.81 98.7921 33.09 98.7921 32.21C98.7921 31.15 98.8821 29.98 99.0621 28.7C99.2621 27.4 99.4521 26.02 99.6321 24.56C99.8121 23.08 99.9021 21.55 99.9021 19.97C99.9021 19.25 99.8021 18.71 99.6021 18.35C99.4021 17.97 99.0121 17.78 98.4321 17.78C98.0321 17.78 97.6021 18.04 97.1421 18.56C96.6821 19.06 96.2021 19.74 95.7021 20.6C95.2221 21.46 94.7621 22.42 94.3221 23.48C93.8821 24.52 93.4821 25.58 93.1221 26.66C92.7821 27.74 92.5121 28.76 92.3121 29.72C92.1121 30.66 92.0121 31.47 92.0121 32.15C92.0121 32.77 92.0621 33.32 92.1621 33.8C92.2821 34.28 92.4021 34.61 92.5221 34.79C92.1421 34.93 91.8021 35.03 91.5021 35.09C91.2021 35.17 90.9221 35.21 90.6621 35.21ZM124.995 35.51C123.295 35.51 121.905 35.14 120.825 34.4C119.745 33.66 118.945 32.66 118.425 31.4C117.925 30.14 117.675 28.75 117.675 27.23C117.675 26.07 117.815 24.9 118.095 23.72C118.395 22.52 118.815 21.37 119.355 20.27C119.895 19.17 120.565 18.19 121.365 17.33C122.165 16.45 123.065 15.76 124.065 15.26C125.085 14.74 126.205 14.48 127.425 14.48C129.025 14.48 130.205 14.88 130.965 15.68C131.725 16.48 132.105 17.44 132.105 18.56C132.105 19.44 131.885 20.35 131.445 21.29C131.025 22.21 130.395 23.07 129.555 23.87C128.735 24.67 127.735 25.32 126.555 25.82C125.375 26.32 124.035 26.57 122.535 26.57C121.995 26.57 121.455 26.54 120.915 26.48C120.955 28.72 121.375 30.42 122.175 31.58C122.975 32.72 124.105 33.29 125.565 33.29C126.565 33.29 127.445 33.05 128.205 32.57C128.965 32.07 129.585 31.3 130.065 30.26C130.305 30.48 130.485 30.75 130.605 31.07C130.725 31.37 130.785 31.66 130.785 31.94C130.785 32.56 130.595 33.1 130.215 33.56C129.835 34 129.345 34.37 128.745 34.67C128.165 34.95 127.535 35.16 126.855 35.3C126.195 35.44 125.575 35.51 124.995 35.51ZM122.325 24.65C123.785 24.65 125.005 24.39 125.985 23.87C126.965 23.35 127.705 22.7 128.205 21.92C128.705 21.12 128.955 20.33 128.955 19.55C128.955 18.77 128.715 18.11 128.235 17.57C127.755 17.01 127.015 16.73 126.015 16.73C125.115 16.73 124.355 16.99 123.735 17.51C123.135 18.01 122.645 18.67 122.265 19.49C121.885 20.29 121.595 21.14 121.395 22.04C121.195 22.94 121.055 23.78 120.975 24.56C121.455 24.62 121.905 24.65 122.325 24.65Z" fill="#8A4318"/>
</g>
<path d="M4.26 34.67L3.64113 35.4555L3.6542 35.4658L3.66761 35.4757L4.26 34.67ZM2.64 32.24L1.69826 32.5763L1.70191 32.5866L1.70578 32.5967L2.64 32.24ZM2.37 24.2L1.38766 24.0129L1.38622 24.0204L1.3849 24.028L2.37 24.2ZM3.42 20.57L2.49042 20.2014L2.49042 20.2014L3.42 20.57ZM5.16 17.48L5.9494 18.094L5.95583 18.0855L5.16 17.48ZM7.62 15.29L7.12972 14.4184L7.12188 14.4229L7.62 15.29ZM15.06 16.49L14.2896 17.1276L15.8167 18.9728L16.055 16.5895L15.06 16.49ZM15.15 15.11L16.1493 15.1484L16.1493 15.147L15.15 15.11ZM15.12 11.09L14.1212 11.1399L14.1213 11.1412L15.12 11.09ZM14.91 8.96L13.922 9.11438L13.9228 9.11923L14.91 8.96ZM14.52 7.55L13.8473 6.81006L13.2713 7.33371L13.6376 8.02059L14.52 7.55ZM15.45 7.07L15.1753 6.10839L15.1627 6.11217L15.45 7.07ZM18.09 7.61L17.274 8.18802L17.2818 8.19912L17.29 8.21L18.09 7.61ZM18.36 13.49L17.3703 13.3463L17.3685 13.36L18.36 13.49ZM17.79 17.48L18.7785 17.631L18.7785 17.631L17.79 17.48ZM17.19 21.95L16.1967 21.8339L16.1954 21.8467L17.19 21.95ZM17.22 30.92L16.2314 31.0708L16.2329 31.0804L16.2345 31.0899L17.22 30.92ZM18.36 34.1L19.1449 34.7196L19.5672 34.1848L19.2238 33.5961L18.36 34.1ZM17.37 34.94L16.9228 34.0456L16.9124 34.0508L16.9021 34.0562L17.37 34.94ZM14.37 33.53L13.4264 33.8611L13.4299 33.8711L13.4337 33.8811L14.37 33.53ZM13.83 26.96L12.8357 26.8535L12.8338 26.8711L12.8325 26.8888L13.83 26.96ZM14.01 25.31L15.0039 25.4204L13.0672 24.9767L14.01 25.31ZM11.61 30.56L10.7495 30.0505L10.7446 30.059L11.61 30.56ZM8.91 34.13L8.22708 33.3994L8.21914 33.407L8.91 34.13ZM9 31.34L8.2814 30.6446L8.28101 30.645L9 31.34ZM10.83 28.91L11.6799 29.437L11.6845 29.4294L10.83 28.91ZM14.04 21.74L14.9945 22.0383L14.9958 22.0341L14.04 21.74ZM14.82 18.11L15.8143 18.2165L15.8749 17.6512L15.42 17.31L14.82 18.11ZM12.78 16.94L12.4036 17.8665L12.4162 17.8716L12.4289 17.8763L12.78 16.94ZM8.52 17.39L7.90606 16.6006L7.90606 16.6006L8.52 17.39ZM6.69 19.7L5.79921 19.2455L5.79557 19.2528L6.69 19.7ZM5.58 23.06L4.60001 22.8609L4.60001 22.8609L5.58 23.06ZM5.43 29.72L4.45038 29.9209L4.45145 29.926L5.43 29.72ZM6.18 31.55L6.98418 30.9556L6.98418 30.9556L6.18 31.55ZM6.45 34.42C5.90092 34.42 5.3756 34.2491 4.85239 33.8643L3.66761 35.4757C4.50441 36.0909 5.43908 36.42 6.45 36.42V34.42ZM4.87887 33.8845C4.40669 33.5125 3.95441 32.879 3.57422 31.8833L1.70578 32.5967C2.16559 33.801 2.79331 34.7875 3.64113 35.4555L4.87887 33.8845ZM3.58174 31.9037C3.23441 30.9311 3.04 29.6066 3.04 27.89H1.04C1.04 29.7334 1.24559 31.3089 1.69826 32.5763L3.58174 31.9037ZM3.04 27.89C3.04 26.7513 3.14437 25.5789 3.3551 24.372L1.3849 24.028C1.15563 25.3411 1.04 26.6287 1.04 27.89H3.04ZM3.35234 24.3871C3.58085 23.1874 3.9135 22.0383 4.34958 20.9386L2.49042 20.2014C2.0065 21.4217 1.63915 22.6926 1.38766 24.0129L3.35234 24.3871ZM4.34958 20.9386C4.77795 19.8584 5.31267 18.9125 5.94935 18.0939L4.37065 16.8661C3.60733 17.8475 2.98205 18.9616 2.49042 20.2014L4.34958 20.9386ZM5.95583 18.0855C6.58047 17.2646 7.30135 16.6263 8.11812 16.1571L7.12188 14.4229C6.05865 15.0337 5.13953 15.8554 4.36417 16.8745L5.95583 18.0855ZM8.11026 16.1616C8.90993 15.7118 9.80909 15.48 10.83 15.48V13.48C9.49091 13.48 8.25007 13.7882 7.12974 14.4184L8.11026 16.1616ZM10.83 15.48C11.6334 15.48 12.2837 15.6416 12.8129 15.9289L13.7671 14.1711C12.8963 13.6984 11.9066 13.48 10.83 13.48V15.48ZM12.8129 15.9289C13.4072 16.2515 13.8957 16.6516 14.2896 17.1276L15.8304 15.8524C15.2643 15.1684 14.5728 14.6085 13.7671 14.1711L12.8129 15.9289ZM16.055 16.5895C16.0976 16.1643 16.1287 15.6833 16.1493 15.1484L14.1507 15.0716C14.1313 15.5767 14.1024 16.0157 14.065 16.3905L16.055 16.5895ZM16.1493 15.147C16.1698 14.5942 16.18 14.0319 16.18 13.46H14.18C14.18 14.0081 14.1702 14.5458 14.1507 15.073L16.1493 15.147ZM16.18 13.46C16.18 12.6433 16.1596 11.8362 16.1187 11.0388L14.1213 11.1412C14.1604 11.9037 14.18 12.6767 14.18 13.46H16.18ZM16.1188 11.0401C16.0774 10.2129 16.0044 9.46521 15.8972 8.80077L13.9228 9.11923C14.0156 9.69479 14.0826 10.3671 14.1212 11.1399L16.1188 11.0401ZM15.898 8.80562C15.7934 8.13627 15.6433 7.53115 15.4024 7.07941L13.6376 8.02059C13.7167 8.16884 13.8266 8.50373 13.922 9.11438L15.898 8.80562ZM15.1927 8.28994C15.2668 8.22258 15.4263 8.12115 15.7373 8.02782L15.1627 6.11217C14.6737 6.25885 14.2132 6.47741 13.8473 6.81006L15.1927 8.28994ZM15.7247 8.03152C16.0922 7.92654 16.3547 7.89 16.53 7.89V5.89C16.1053 5.89 15.6478 5.97346 15.1753 6.10847L15.7247 8.03152ZM16.53 7.89C16.9759 7.89 17.1587 8.02522 17.274 8.18802L18.906 7.03198C18.3413 6.23478 17.4841 5.89 16.53 5.89V7.89ZM17.29 8.21C17.4386 8.40818 17.63 8.98209 17.63 10.22H19.63C19.63 8.9379 19.4614 7.77181 18.89 7.01L17.29 8.21ZM17.63 10.22C17.63 11.0991 17.5456 12.1393 17.3704 13.3463L19.3496 13.6337C19.5344 12.3607 19.63 11.2209 19.63 10.22H17.63ZM17.3685 13.36C17.2096 14.5718 17.0206 15.8947 16.8015 17.329L18.7785 17.631C18.9994 16.1853 19.1904 14.8482 19.3515 13.62L17.3685 13.36ZM16.8015 17.329C16.5796 18.7813 16.378 20.283 16.1968 21.8339L18.1832 22.0661C18.362 20.537 18.5604 19.0587 18.7785 17.631L16.8015 17.329ZM16.1954 21.8467C16.0318 23.4212 15.95 25.0057 15.95 26.6H17.95C17.95 25.0743 18.0282 23.5587 18.1846 22.0533L16.1954 21.8467ZM15.95 26.6C15.95 28.3312 16.0414 29.8249 16.2314 31.0708L18.2086 30.7692C18.0386 29.6551 17.95 28.2688 17.95 26.6H15.95ZM16.2345 31.0899C16.4536 32.3606 16.8726 33.5347 17.4962 34.6039L19.2238 33.5961C18.7274 32.7453 18.3864 31.7994 18.2055 30.7501L16.2345 31.0899ZM17.5751 33.4804C17.3479 33.7681 17.1275 33.9432 16.9228 34.0456L17.8172 35.8344C18.3325 35.5768 18.7721 35.1919 19.1449 34.7196L17.5751 33.4804ZM16.9021 34.0562C16.6961 34.1653 16.5058 34.21 16.32 34.21V36.21C16.8542 36.21 17.3639 36.0747 17.8379 35.8238L16.9021 34.0562ZM16.32 34.21C16.1128 34.21 15.9637 34.1517 15.8252 34.0324C15.6676 33.8966 15.4794 33.6404 15.3063 33.1789L13.4337 33.8811C13.6806 34.5396 14.0274 35.1234 14.5198 35.5476C15.0313 35.9883 15.6472 36.21 16.32 36.21V34.21ZM15.3136 33.1989C14.9674 32.2123 14.77 30.7711 14.77 28.82H12.77C12.77 30.8689 12.9726 32.5677 13.4264 33.8611L15.3136 33.1989ZM14.77 28.82C14.77 28.159 14.7895 27.5632 14.8275 27.0312L12.8325 26.8888C12.7905 27.4768 12.77 28.121 12.77 28.82H14.77ZM14.8243 27.0665C14.8842 26.5078 14.944 25.9591 15.0039 25.4204L13.0161 25.1996C12.956 25.7409 12.8958 26.2922 12.8357 26.8535L14.8243 27.0665ZM13.0672 24.9767C12.3849 26.9065 11.6109 28.5957 10.7495 30.0505L12.4705 31.0695C13.4091 29.4843 14.2351 27.6735 14.9528 25.6433L13.0672 24.9767ZM10.7446 30.059C9.89596 31.5247 9.05326 32.6272 8.22712 33.3995L9.59288 34.8605C10.6067 33.9128 11.564 32.6353 12.4754 31.061L10.7446 30.059ZM8.21914 33.407C7.38647 34.2027 6.80539 34.42 6.45 34.42V36.42C7.57461 36.42 8.63353 35.7773 9.60086 34.853L8.21914 33.407ZM7.47 33.24C8.34058 33.24 9.10181 32.6735 9.71899 32.035L8.28101 30.645C8.03029 30.9043 7.82802 31.0633 7.67548 31.1531C7.523 31.2428 7.46049 31.24 7.47 31.24V33.24ZM9.7186 32.0354C10.3825 31.3494 11.0349 30.4773 11.6799 29.4369L9.9801 28.3831C9.38515 29.3427 8.81752 30.0906 8.2814 30.6446L9.7186 32.0354ZM11.6845 29.4294C12.3283 28.3703 12.9369 27.2036 13.5114 25.9316L11.6886 25.1084C11.1431 26.3164 10.5717 27.4097 9.97548 28.3906L11.6845 29.4294ZM13.5114 25.9316C14.0878 24.6553 14.5822 23.3574 14.9945 22.0383L13.0855 21.4417C12.6978 22.6826 12.2322 23.9047 11.6886 25.1084L13.5114 25.9316ZM14.9958 22.0341C15.4109 20.6851 15.6863 19.4116 15.8143 18.2165L13.8257 18.0035C13.7137 19.0484 13.4691 20.1949 13.0842 21.4459L14.9958 22.0341ZM15.42 17.31C14.6465 16.7299 13.8832 16.2857 13.1311 16.0037L12.4289 17.8763C12.9568 18.0743 13.5535 18.4101 14.22 18.91L15.42 17.31ZM13.1564 16.0135C12.4192 15.7141 11.6812 15.55 10.95 15.55V17.55C11.3788 17.55 11.8608 17.6459 12.4036 17.8665L13.1564 16.0135ZM10.95 15.55C9.8244 15.55 8.79903 15.9061 7.90606 16.6006L9.13394 18.1794C9.68097 17.7539 10.2756 17.55 10.95 17.55V15.55ZM7.90606 16.6006C7.04899 17.2673 6.35234 18.1614 5.79924 19.2455L7.58076 20.1545C8.02766 19.2786 8.55101 18.6327 9.13394 18.1794L7.90606 16.6006ZM5.79557 19.2528C5.26886 20.3062 4.87387 21.5127 4.60001 22.8609L6.55999 23.2591C6.80613 22.0473 7.15114 21.0138 7.58443 20.1472L5.79557 19.2528ZM4.60001 22.8609C4.32543 24.2127 4.19 25.6399 4.19 27.14H6.19C6.19 25.7601 6.31457 24.4673 6.55999 23.2591L4.60001 22.8609ZM4.19 27.14C4.19 28.1358 4.27466 29.0642 4.4504 29.9209L6.4096 29.5191C6.26534 28.8158 6.19 28.0242 6.19 27.14H4.19ZM4.45145 29.926C4.63103 30.779 4.92573 31.5354 5.37582 32.1444L6.98418 30.9556C6.75427 30.6446 6.54897 30.181 6.40855 29.514L4.45145 29.926ZM5.37582 32.1444C5.88255 32.83 6.59777 33.24 7.47 33.24V31.24C7.30223 31.24 7.15745 31.19 6.98418 30.9556L5.37582 32.1444ZM24.4001 34.37L23.6001 34.97L23.6068 34.979L23.6138 34.9878L24.4001 34.37ZM24.0701 27.59L23.085 27.418L23.0837 27.4256L23.0824 27.4332L24.0701 27.59ZM24.7001 23.66L23.7129 23.5003L23.7118 23.5074L23.7107 23.5145L24.7001 23.66ZM24.9401 17.39L23.9437 17.4754L23.9439 17.4779L24.9401 17.39ZM24.4001 15.5L23.693 14.7929L23.168 15.3178L23.5186 15.9722L24.4001 15.5ZM25.3601 14.99L25.0854 14.0285L25.0854 14.0285L25.3601 14.99ZM27.7901 15.32L27.1424 16.0819L27.1516 16.0897L27.1609 16.0972L27.7901 15.32ZM28.1201 19.82L27.1328 19.6608L27.1316 19.6685L27.1305 19.6763L28.1201 19.82ZM27.5501 23.87L26.5593 23.7343L28.486 24.2221L27.5501 23.87ZM30.0101 18.74L29.1634 18.2078L29.1634 18.2078L30.0101 18.74ZM32.5301 15.56L33.199 16.3033L33.199 16.3033L32.5301 15.56ZM35.4401 14.87L34.6767 15.5159L34.6767 15.5159L35.4401 14.87ZM35.8901 15.77L34.9167 15.999L34.923 16.0258L34.9307 16.0522L35.8901 15.77ZM35.9801 17.48L34.9901 17.3386L34.9901 17.3386L35.9801 17.48ZM35.8601 18.2L35.664 19.1806L36.6445 19.3767L36.8407 18.3961L35.8601 18.2ZM32.5901 18.98L32.0031 18.1703L31.9934 18.1775L32.5901 18.98ZM30.4001 21.26L29.5898 20.6739L29.5875 20.6771L30.4001 21.26ZM28.6301 24.23L27.7323 23.7896L27.7289 23.7965L27.7256 23.8034L28.6301 24.23ZM27.4601 27.32L28.4216 27.5947L28.423 27.5896L27.4601 27.32ZM27.2201 32.24L26.233 32.4001L26.2355 32.4155L26.2385 32.4309L27.2201 32.24ZM28.1801 34.13L28.9369 34.7836L29.5214 34.1068L28.9138 33.4506L28.1801 34.13ZM27.0401 35L27.3858 35.9383L27.3858 35.9383L27.0401 35ZM26.1101 34.21C25.7231 34.21 25.4407 34.0758 25.1864 33.7522L23.6138 34.9878C24.2395 35.7842 25.097 36.21 26.1101 36.21V34.21ZM25.2001 33.77C25.1133 33.6544 24.9972 33.4146 24.9078 32.9721C24.8202 32.5385 24.7701 31.9695 24.7701 31.25H22.7701C22.7701 32.0505 22.8249 32.7615 22.9474 33.3679C23.068 33.9654 23.2668 34.5256 23.6001 34.97L25.2001 33.77ZM24.7701 31.25C24.7701 30.1265 24.8653 28.9591 25.0577 27.7468L23.0824 27.4332C22.8749 28.7409 22.7701 30.0135 22.7701 31.25H24.7701ZM25.0552 27.762C25.2768 26.4926 25.4882 25.1737 25.6894 23.8055L23.7107 23.5145C23.5119 24.8663 23.3033 26.1674 23.085 27.418L25.0552 27.762ZM25.6872 23.8197C25.9165 22.4025 26.0301 20.9188 26.0301 19.37H24.0301C24.0301 20.8212 23.9237 22.1975 23.7129 23.5003L25.6872 23.8197ZM26.0301 19.37C26.0301 18.6988 25.9986 18.0094 25.9362 17.3021L23.9439 17.4779C24.0015 18.1306 24.0301 18.7612 24.0301 19.37H26.0301ZM25.9364 17.3046C25.8661 16.4836 25.6522 15.7197 25.2816 15.0278L23.5186 15.9722C23.7479 16.4003 23.8941 16.8964 23.9437 17.4754L25.9364 17.3046ZM25.1072 16.2071C25.1682 16.1461 25.3158 16.0427 25.6348 15.9515L25.0854 14.0285C24.5644 14.1773 24.072 14.4139 23.693 14.7929L25.1072 16.2071ZM25.6348 15.9515C26.0094 15.8445 26.2597 15.81 26.4101 15.81V13.81C26.0004 13.81 25.5507 13.8955 25.0854 14.0285L25.6348 15.9515ZM26.4101 15.81C26.6903 15.81 26.9213 15.894 27.1424 16.0819L28.4377 14.5581C27.8588 14.066 27.1698 13.81 26.4101 13.81V15.81ZM27.1609 16.0972C27.2409 16.162 27.4201 16.3831 27.4201 17.09H29.4201C29.4201 16.1169 29.1793 15.158 28.4193 14.5428L27.1609 16.0972ZM27.4201 17.09C27.4201 17.5845 27.3318 18.4273 27.1328 19.6608L29.1073 19.9792C29.3084 18.7327 29.4201 17.7555 29.4201 17.09H27.4201ZM27.1305 19.6763C26.95 20.9194 26.7596 22.2721 26.5593 23.7343L28.5408 24.0057C28.7405 22.5479 28.9301 21.2006 29.1097 19.9637L27.1305 19.6763ZM28.486 24.2221C29.2291 22.2471 30.0214 20.6011 30.8567 19.2722L29.1634 18.2078C28.2388 19.6789 27.3911 21.4529 26.6141 23.5179L28.486 24.2221ZM30.8567 19.2722C31.7109 17.9133 32.4941 16.9378 33.199 16.3033L31.8611 14.8167C30.9661 15.6222 30.0693 16.7667 29.1634 18.2078L30.8567 19.2722ZM33.199 16.3033C33.9716 15.6079 34.3977 15.48 34.5401 15.48V13.48C33.6025 13.48 32.6885 14.0721 31.8611 14.8167L33.199 16.3033ZM34.5401 15.48C34.6153 15.48 34.6467 15.4925 34.6525 15.4951C34.6561 15.4966 34.6581 15.4979 34.6601 15.4994C34.6622 15.501 34.6679 15.5055 34.6767 15.5159L36.2035 14.2241C35.77 13.7118 35.1759 13.48 34.5401 13.48V15.48ZM34.6767 15.5159C34.7921 15.6523 34.8718 15.8086 34.9167 15.999L36.8635 15.541C36.7483 15.0514 36.528 14.6077 36.2035 14.2241L34.6767 15.5159ZM34.9307 16.0522C35.0106 16.3236 35.0401 16.5369 35.0401 16.7H37.0401C37.0401 16.3031 36.9696 15.8964 36.8494 15.4878L34.9307 16.0522ZM35.0401 16.7C35.0401 16.8852 35.0246 17.0974 34.9901 17.3386L36.97 17.6214C37.0156 17.3026 37.0401 16.9948 37.0401 16.7H35.0401ZM34.9901 17.3386C34.9518 17.6067 34.9148 17.8274 34.8795 18.0039L36.8407 18.3961C36.8854 18.1726 36.9283 17.9133 36.97 17.6214L34.9901 17.3386ZM36.0562 17.2194C35.7026 17.1487 35.3563 17.11 35.0201 17.11V19.11C35.2039 19.11 35.4175 19.1313 35.664 19.1806L36.0562 17.2194ZM35.0201 17.11C33.949 17.11 32.938 17.4926 32.0031 18.1704L33.177 19.7896C33.8422 19.3074 34.4512 19.11 35.0201 19.11V17.11ZM31.9934 18.1775C31.1176 18.8288 30.3184 19.6668 29.5899 20.6739L31.2103 21.8461C31.8418 20.9732 32.5026 20.2912 33.1868 19.7825L31.9934 18.1775ZM29.5875 20.6771C28.8939 21.644 28.2757 22.6819 27.7323 23.7896L29.5279 24.6704C30.0245 23.6581 30.5863 22.716 31.2126 21.8429L29.5875 20.6771ZM27.7256 23.8034C27.2048 24.9076 26.794 25.9901 26.4971 27.0504L28.423 27.5896C28.6862 26.6499 29.0554 25.6723 29.5345 24.6566L27.7256 23.8034ZM26.4986 27.0453C26.2053 28.0717 26.0401 28.9911 26.0401 29.78H28.0401C28.0401 29.2489 28.1549 28.5283 28.4216 27.5947L26.4986 27.0453ZM26.0401 29.78C26.0401 30.7233 26.1029 31.5979 26.233 32.4001L28.2072 32.0799C28.0973 31.4021 28.0401 30.6367 28.0401 29.78H26.0401ZM26.2385 32.4309C26.4141 33.3343 26.8203 34.1333 27.4463 34.8094L28.9138 33.4506C28.5399 33.0467 28.306 32.5857 28.2017 32.0491L26.2385 32.4309ZM27.4233 33.4764C27.1087 33.8406 26.8611 34.0002 26.6944 34.0617L27.3858 35.9383C27.979 35.7198 28.4914 35.2994 28.9369 34.7836L27.4233 33.4764ZM26.6944 34.0617C26.3598 34.1849 26.1783 34.21 26.1101 34.21V36.21C26.5219 36.21 26.9604 36.0951 27.3858 35.9383L26.6944 34.0617ZM38.5127 33.41L37.6484 33.9131L37.6541 33.9226L38.5127 33.41ZM38.0027 22.64L37.0399 22.3699L37.0377 22.3779L38.0027 22.64ZM39.8927 18.35L40.729 18.8984L40.729 18.8984L39.8927 18.35ZM42.6827 15.5L42.1428 14.6583L42.1428 14.6583L42.6827 15.5ZM50.3627 16.49L49.5955 17.1313L50.8444 18.6256L51.331 16.7399L50.3627 16.49ZM50.9627 15.17L50.2556 14.4629L50.2415 14.477L50.2279 14.4917L50.9627 15.17ZM53.6327 15.56L54.5691 15.9111L54.7803 15.3479L54.3817 14.8974L53.6327 15.56ZM53.1227 17.57L54.1051 17.7571L54.1059 17.7529L53.1227 17.57ZM52.7027 20.42L53.6961 20.5346L53.6964 20.5325L52.7027 20.42ZM52.4027 23.69L51.4052 23.62L51.4046 23.6282L51.4042 23.6365L52.4027 23.69ZM52.6127 31.25L51.6295 31.4321L51.6314 31.4427L51.6336 31.4532L52.6127 31.25ZM53.6927 34.1L54.4798 34.7169L54.9026 34.1775L54.552 33.5885L53.6927 34.1ZM49.7327 33.59L50.6588 33.2127L50.6588 33.2127L49.7327 33.59ZM49.1027 27.8L48.1068 27.7095L48.1049 27.7309L48.1039 27.7524L49.1027 27.8ZM49.2227 26.48L50.2186 26.5705L50.219 26.5666L49.2227 26.48ZM49.3127 25.31L50.3108 25.3724L48.3701 24.9762L49.3127 25.31ZM46.9427 30.5L46.0794 29.9954L46.0773 29.999L46.9427 30.5ZM44.2427 34.1L43.5515 33.3773L43.5436 33.385L44.2427 34.1ZM44.3327 31.34L45.0517 32.035L45.0574 32.0291L45.063 32.0232L44.3327 31.34ZM46.1327 28.88L45.2857 28.3485L45.2819 28.3545L45.2782 28.3606L46.1327 28.88ZM47.9027 25.49L46.9913 25.0784L46.9859 25.0907L47.9027 25.49ZM50.1227 18.11L51.117 18.2165L51.177 17.6573L50.7302 17.3156L50.1227 18.11ZM43.2527 17.9L42.5377 17.2008L42.5297 17.2091L43.2527 17.9ZM41.2127 21.65L40.2582 21.3517L40.2559 21.3593L41.2127 21.65ZM41.0927 30.89L40.1757 31.2887L40.1809 31.3009L40.1866 31.3129L41.0927 30.89ZM41.7527 34.42C40.8025 34.42 40.0226 33.9882 39.3714 32.8974L37.6541 33.9226C38.6029 35.5118 39.983 36.42 41.7527 36.42V34.42ZM39.377 32.9069C38.72 31.7783 38.3427 30.1364 38.3427 27.89H36.3427C36.3427 30.3236 36.7454 32.3617 37.6485 33.9131L39.377 32.9069ZM38.3427 27.89C38.3427 26.0881 38.5536 24.4272 38.9678 22.9021L37.0377 22.3779C36.5719 24.0928 36.3427 25.9319 36.3427 27.89H38.3427ZM38.9656 22.9101C39.4024 21.3526 39.9937 20.0197 40.729 18.8984L39.0565 17.8016C38.1918 19.1203 37.5231 20.6474 37.0399 22.3699L38.9656 22.9101ZM40.729 18.8984C41.464 17.7774 42.2983 16.9347 43.2227 16.3417L42.1428 14.6583C40.9472 15.4253 39.9214 16.4826 39.0565 17.8016L40.729 18.8984ZM43.2227 16.3417C44.1242 15.7633 45.0873 15.48 46.1327 15.48V13.48C44.6982 13.48 43.3612 13.8767 42.1428 14.6583L43.2227 16.3417ZM46.1327 15.48C47.5273 15.48 48.6595 16.0115 49.5955 17.1313L51.13 15.8487C49.826 14.2885 48.1382 13.48 46.1327 13.48V15.48ZM51.331 16.7399C51.4782 16.1697 51.6273 15.9244 51.6975 15.8483L50.2279 14.4917C49.8182 14.9356 49.5673 15.5703 49.3945 16.2401L51.331 16.7399ZM51.6698 15.8771C51.7062 15.8408 51.7821 15.78 52.0127 15.78V13.78C51.3634 13.78 50.7393 13.9792 50.2556 14.4629L51.6698 15.8771ZM52.0127 15.78C52.3101 15.78 52.5882 15.8885 52.8837 16.2226L54.3817 14.8974C53.7573 14.1915 52.9554 13.78 52.0127 13.78V15.78ZM52.6964 15.2089C52.4866 15.7684 52.3039 16.5038 52.1396 17.3871L54.1059 17.7529C54.2615 16.9162 54.4189 16.3116 54.5691 15.9111L52.6964 15.2089ZM52.1404 17.3829C51.9747 18.2528 51.8313 19.2283 51.7091 20.3075L53.6964 20.5325C53.8142 19.4917 53.9508 18.5672 54.1051 17.7571L52.1404 17.3829ZM51.7093 20.3054C51.5875 21.3615 51.4861 22.4664 51.4052 23.62L53.4003 23.76C53.4793 22.6336 53.578 21.5585 53.6961 20.5346L51.7093 20.3054ZM51.4042 23.6365C51.3433 24.7729 51.3127 25.8708 51.3127 26.93H53.3127C53.3127 25.9092 53.3422 24.8471 53.4013 23.7435L51.4042 23.6365ZM51.3127 26.93C51.3127 28.7577 51.4136 30.2663 51.6295 31.4321L53.596 31.0679C53.4119 30.0737 53.3127 28.7023 53.3127 26.93H51.3127ZM51.6336 31.4532C51.8738 32.6103 52.2709 33.6664 52.8334 34.6115L54.552 33.5885C54.1146 32.8536 53.7917 32.0097 53.5919 31.0468L51.6336 31.4532ZM52.9057 33.4831C52.4719 34.0366 52.0614 34.21 51.6527 34.21V36.21C52.804 36.21 53.7536 35.6434 54.4798 34.7169L52.9057 33.4831ZM51.6527 34.21C51.468 34.21 51.3266 34.158 51.1876 34.0407C51.0302 33.9079 50.8404 33.6584 50.6588 33.2127L48.8066 33.9673C49.065 34.6016 49.4153 35.1621 49.8979 35.5693C50.3989 35.992 50.9975 36.21 51.6527 36.21V34.21ZM50.6588 33.2127C50.2916 32.3113 50.0727 30.8945 50.0727 28.88H48.0727C48.0727 30.9855 48.2939 32.7087 48.8066 33.9673L50.6588 33.2127ZM50.0727 28.88C50.0727 28.6007 50.0821 28.2575 50.1016 27.8476L48.1039 27.7524C48.0834 28.1825 48.0727 28.5593 48.0727 28.88H50.0727ZM50.0986 27.8905C50.1386 27.4505 50.1786 27.0105 50.2186 26.5705L48.2268 26.3895C48.1868 26.8295 48.1468 27.2695 48.1068 27.7095L50.0986 27.8905ZM50.219 26.5666C50.2594 26.1017 50.2901 25.7031 50.3108 25.3724L48.3147 25.2476C48.2954 25.5569 48.2661 25.9383 48.2265 26.3934L50.219 26.5666ZM48.3701 24.9762C47.7082 26.845 46.9435 28.5167 46.0794 29.9954L47.8061 31.0046C48.7419 29.4033 49.5573 27.6149 50.2554 25.6438L48.3701 24.9762ZM46.0773 29.999C45.2281 31.4658 44.3829 32.5821 43.5515 33.3774L44.934 34.8226C45.9425 33.8579 46.8974 32.5742 47.8082 31.001L46.0773 29.999ZM43.5436 33.385C42.7146 34.1956 42.1249 34.42 41.7527 34.42V36.42C42.9006 36.42 43.9709 35.7644 44.9419 34.815L43.5436 33.385ZM42.7727 33.24C43.6548 33.24 44.4236 32.6848 45.0517 32.035L43.6137 30.645C43.0819 31.1952 42.8107 31.24 42.7727 31.24V33.24ZM45.063 32.0232C45.7046 31.3374 46.3447 30.4565 46.9873 29.3994L45.2782 28.3606C44.6807 29.3435 44.1209 30.1026 43.6025 30.6568L45.063 32.0232ZM46.9798 29.4115C47.6493 28.3444 48.262 27.1695 48.8196 25.8893L46.9859 25.0907C46.4634 26.2905 45.8961 27.3756 45.2857 28.3485L46.9798 29.4115ZM48.8141 25.9016C49.3905 24.6253 49.885 23.3274 50.2972 22.0083L48.3883 21.4117C48.0005 22.6526 47.535 23.8747 46.9914 25.0784L48.8141 25.9016ZM50.2972 22.0083C50.7132 20.6772 50.9889 19.4125 51.117 18.2165L49.1284 18.0035C49.0166 19.0475 48.7723 20.1828 48.3883 21.4117L50.2972 22.0083ZM50.7302 17.3156C49.2645 16.1948 47.7655 15.55 46.2527 15.55V17.55C47.18 17.55 48.261 17.9452 49.5153 18.9044L50.7302 17.3156ZM46.2527 15.55C44.8292 15.55 43.5803 16.1346 42.5377 17.2009L43.9677 18.5991C44.6851 17.8654 45.4363 17.55 46.2527 17.55V15.55ZM42.5297 17.2091C41.5331 18.2521 40.789 19.6533 40.2583 21.3517L42.1672 21.9483C42.6365 20.4467 43.2523 19.3479 43.9757 18.5909L42.5297 17.2091ZM40.2559 21.3593C39.741 23.0543 39.4927 24.9858 39.4927 27.14H41.4927C41.4927 25.1342 41.7245 23.4057 42.1696 21.9407L40.2559 21.3593ZM39.4927 27.14C39.4927 28.787 39.6986 30.1914 40.1757 31.2887L42.0098 30.4913C41.6869 29.7486 41.4927 28.653 41.4927 27.14H39.4927ZM40.1866 31.3129C40.6913 32.3944 41.5259 33.24 42.7727 33.24V31.24C42.6196 31.24 42.3342 31.1856 41.9989 30.4671L40.1866 31.3129ZM62.6784 42.5L62.8199 41.5101L62.8199 41.5101L62.6784 42.5ZM61.0884 42.08L60.717 43.0085L60.717 43.0085L61.0884 42.08ZM59.8584 41.24L59.0902 41.8802L59.1004 41.8924L59.111 41.9044L59.8584 41.24ZM59.7684 38.33L58.93 37.785L58.9202 37.8001L58.9109 37.8155L59.7684 38.33ZM60.4884 37.43L61.3442 36.9126L60.7152 35.8724L59.8158 36.6901L60.4884 37.43ZM62.5284 39.56L63.0831 38.728L63.0831 38.7279L62.5284 39.56ZM67.7784 39.53L67.0713 38.8229L67.0651 38.8291L67.059 38.8354L67.7784 39.53ZM69.0684 36.83L68.0946 36.6028L68.0938 36.6063L69.0684 36.83ZM69.6384 32.18L68.6404 32.117L68.6398 32.1274L69.6384 32.18ZM69.9084 25.34L70.9082 25.3625L68.9656 25.0067L69.9084 25.34ZM67.5084 30.59L66.648 30.0805L66.6459 30.084L67.5084 30.59ZM64.8084 34.13L64.1255 33.3994L64.1176 33.407L64.8084 34.13ZM60.1584 34.67L59.5396 35.4555L59.5526 35.4658L59.566 35.4757L60.1584 34.67ZM58.5384 32.24L57.5967 32.5763L57.6003 32.5866L57.6042 32.5967L58.5384 32.24ZM58.2684 24.2L57.2861 24.0129L57.2847 24.0204L57.2833 24.028L58.2684 24.2ZM59.3184 20.57L58.3889 20.2014L58.3889 20.2014L59.3184 20.57ZM61.0584 17.48L61.8478 18.094L61.8543 18.0855L61.0584 17.48ZM63.5184 15.29L63.0282 14.4184L63.0203 14.4229L63.5184 15.29ZM70.9584 16.49L70.188 17.1276L71.4602 18.6647L71.9303 16.7256L70.9584 16.49ZM71.5884 15.14L70.9102 14.4052L70.9102 14.4052L71.5884 15.14ZM73.6884 14.96L73.3873 15.9136L73.4164 15.9228L73.4459 15.9301L73.6884 14.96ZM74.6784 15.41L75.5526 15.8956L75.9709 15.1426L75.2881 14.6174L74.6784 15.41ZM74.0184 16.7L74.92 17.1327L74.92 17.1327L74.0184 16.7ZM73.3284 18.32L72.3934 17.9653L72.348 18.0851L72.3342 18.2125L73.3284 18.32ZM73.0884 21.02L72.0913 20.9447L72.0906 20.9541L72.09 20.9635L73.0884 21.02ZM72.9384 24.92L73.9381 24.9463L73.9381 24.946L72.9384 24.92ZM71.7984 36.92L70.8685 36.5521L70.8651 36.561L71.7984 36.92ZM68.7984 41.12L68.1965 40.3215L68.1896 40.3267L68.1828 40.332L68.7984 41.12ZM64.8984 31.34L64.1798 30.6446L64.1794 30.645L64.8984 31.34ZM66.7284 28.91L67.5784 29.437L67.583 29.4294L66.7284 28.91ZM69.9384 21.74L70.8929 22.0383L70.8942 22.0341L69.9384 21.74ZM70.7184 18.11L71.7127 18.2165L71.7733 17.6512L71.3184 17.31L70.7184 18.11ZM68.6784 16.94L68.3021 17.8665L68.3146 17.8716L68.3273 17.8763L68.6784 16.94ZM64.4184 17.39L63.8045 16.6006L63.8045 16.6006L64.4184 17.39ZM62.5884 19.7L61.6976 19.2455L61.694 19.2528L62.5884 19.7ZM61.4784 23.06L60.4985 22.8609L60.4985 22.8609L61.4784 23.06ZM61.3284 29.72L60.3488 29.9209L60.3499 29.926L61.3284 29.72ZM62.0784 31.55L62.8826 30.9556L62.8826 30.9556L62.0784 31.55ZM64.2684 41.62C63.8214 41.62 63.339 41.5842 62.8199 41.5101L62.537 43.4899C63.1379 43.5758 63.7154 43.62 64.2684 43.62V41.62ZM62.8199 41.5101C62.3347 41.4407 61.8823 41.3205 61.4598 41.1515L60.717 43.0085C61.2946 43.2395 61.9022 43.3993 62.537 43.4899L62.8199 41.5101ZM61.4598 41.1515C61.0868 41.0023 60.8111 40.8065 60.6058 40.5756L59.111 41.9044C59.5458 42.3935 60.0901 42.7577 60.717 43.0085L61.4598 41.1515ZM60.6267 40.5998C60.5095 40.4592 60.4084 40.2335 60.4084 39.83H58.4084C58.4084 40.5866 58.6074 41.3008 59.0902 41.8802L60.6267 40.5998ZM60.4084 39.83C60.4084 39.3603 60.5023 39.0505 60.6259 38.8445L58.9109 37.8155C58.5546 38.4095 58.4084 39.0997 58.4084 39.83H60.4084ZM60.6069 38.875C60.8447 38.5091 61.0308 38.2884 61.1611 38.1699L59.8158 36.6901C59.5061 36.9716 59.2122 37.3509 58.93 37.785L60.6069 38.875ZM59.6327 37.9474C60.2291 38.9337 61.0121 39.7509 61.9737 40.3921L63.0831 38.7279C62.3648 38.2491 61.7878 37.6463 61.3442 36.9126L59.6327 37.9474ZM61.9737 40.3921C62.9927 41.0714 64.1595 41.4 65.4384 41.4V39.4C64.5174 39.4 63.7441 39.1686 63.0831 38.728L61.9737 40.3921ZM65.4384 41.4C66.6403 41.4 67.7061 41.0446 68.4978 40.2246L67.059 38.8354C66.7308 39.1754 66.2366 39.4 65.4384 39.4V41.4ZM68.4855 40.2371C69.2509 39.4718 69.7416 38.3676 70.0431 37.0537L68.0938 36.6063C67.8353 37.7324 67.466 38.4282 67.0713 38.8229L68.4855 40.2371ZM70.0423 37.0572C70.3408 35.7778 70.5354 34.1634 70.6371 32.2326L68.6398 32.1274C68.5414 33.9966 68.3561 35.4822 68.0946 36.6028L70.0423 37.0572ZM70.6365 32.243C70.7576 30.3254 70.848 28.0312 70.9082 25.3625L68.9087 25.3174C68.8489 27.9688 68.7593 30.2345 68.6404 32.117L70.6365 32.243ZM68.9656 25.0067C68.2834 26.9365 67.5094 28.6257 66.648 30.0805L68.3689 31.0995C69.3075 29.5143 70.1335 27.7035 70.8513 25.6733L68.9656 25.0067ZM66.6459 30.084C65.7976 31.53 64.9541 32.6249 64.1256 33.3995L65.4913 34.8605C66.5027 33.9151 67.4593 32.65 68.371 31.096L66.6459 30.084ZM64.1176 33.407C63.2849 34.2027 62.7038 34.42 62.3484 34.42V36.42C63.473 36.42 64.532 35.7773 65.4993 34.853L64.1176 33.407ZM62.3484 34.42C61.7994 34.42 61.274 34.2491 60.7508 33.8643L59.566 35.4757C60.4028 36.0909 61.3375 36.42 62.3484 36.42V34.42ZM60.7773 33.8845C60.3051 33.5125 59.8528 32.879 59.4727 31.8833L57.6042 32.5967C58.064 33.801 58.6917 34.7875 59.5396 35.4555L60.7773 33.8845ZM59.4802 31.9037C59.1328 30.9311 58.9384 29.6066 58.9384 27.89H56.9384C56.9384 29.7334 57.144 31.3089 57.5967 32.5763L59.4802 31.9037ZM58.9384 27.89C58.9384 26.7513 59.0428 25.5789 59.2535 24.372L57.2833 24.028C57.0541 25.3411 56.9384 26.6287 56.9384 27.89H58.9384ZM59.2508 24.3871C59.4793 23.1874 59.8119 22.0383 60.248 20.9386L58.3889 20.2014C57.9049 21.4217 57.5376 22.6926 57.2861 24.0129L59.2508 24.3871ZM60.248 20.9386C60.6764 19.8584 61.2111 18.9125 61.8478 18.0939L60.2691 16.8661C59.5058 17.8475 58.8805 18.9616 58.3889 20.2014L60.248 20.9386ZM61.8543 18.0855C62.4789 17.2646 63.1998 16.6263 64.0166 16.1571L63.0203 14.4229C61.9571 15.0337 61.038 15.8554 60.2626 16.8745L61.8543 18.0855ZM64.0087 16.1616C64.8084 15.7118 65.7075 15.48 66.7284 15.48V13.48C65.3893 13.48 64.1485 13.7882 63.0282 14.4184L64.0087 16.1616ZM66.7284 15.48C67.5319 15.48 68.1821 15.6416 68.7113 15.9289L69.6655 14.1711C68.7948 13.6984 67.805 13.48 66.7284 13.48V15.48ZM68.7113 15.9289C69.3057 16.2515 69.7942 16.6516 70.188 17.1276L71.7288 15.8524C71.1627 15.1684 70.4712 14.6085 69.6655 14.1711L68.7113 15.9289ZM71.9303 16.7256C71.9999 16.4383 72.0733 16.2279 72.1421 16.0804C72.176 16.0078 72.2059 15.9567 72.2293 15.9223C72.2408 15.9054 72.2501 15.8936 72.2567 15.8858C72.2632 15.878 72.2667 15.8748 72.2667 15.8748L70.9102 14.4052C70.4234 14.8545 70.1571 15.5512 69.9866 16.2544L71.9303 16.7256ZM72.2667 15.8748C72.3083 15.8364 72.39 15.78 72.6084 15.78V13.78C71.9869 13.78 71.3885 13.9636 70.9102 14.4052L72.2667 15.8748ZM72.6084 15.78C72.8305 15.78 73.0884 15.8192 73.3873 15.9136L73.9896 14.0064C73.5285 13.8608 73.0664 13.78 72.6084 13.78V15.78ZM73.4459 15.9301C73.7457 16.0051 73.9418 16.105 74.0687 16.2026L75.2881 14.6174C74.8951 14.315 74.4312 14.1149 73.931 13.9899L73.4459 15.9301ZM73.8043 14.9244C73.592 15.3065 73.3628 15.755 73.1169 16.2673L74.92 17.1327C75.1541 16.6449 75.3649 16.2335 75.5526 15.8956L73.8043 14.9244ZM73.1169 16.2673C72.8633 16.7956 72.6223 17.3619 72.3934 17.9653L74.2634 18.6747C74.4745 18.1181 74.6936 17.6044 74.92 17.1327L73.1169 16.2673ZM72.3342 18.2125C72.2527 18.9667 72.1718 19.8781 72.0913 20.9447L74.0856 21.0953C74.1651 20.0419 74.2442 19.1533 74.3226 18.4275L72.3342 18.2125ZM72.09 20.9635C72.0293 22.0371 71.9789 23.3479 71.9388 24.894L73.9381 24.946C73.9779 23.4121 74.0276 22.1229 74.0868 21.0765L72.09 20.9635ZM71.9388 24.8937C71.8985 26.4253 71.8784 28.2846 71.8784 30.47H73.8784C73.8784 28.2954 73.8984 26.4547 73.9381 24.9463L71.9388 24.8937ZM71.8784 30.47C71.8784 32.8563 71.5317 34.8759 70.8686 36.5521L72.7283 37.2879C73.5052 35.3241 73.8784 33.0437 73.8784 30.47H71.8784ZM70.8651 36.561C70.2189 38.2412 69.3198 39.4746 68.1965 40.3215L69.4004 41.9185C70.877 40.8054 71.978 39.2388 72.7318 37.279L70.8651 36.561ZM68.1828 40.332C67.0915 41.1845 65.8023 41.62 64.2684 41.62V43.62C66.2146 43.62 67.9453 43.0555 69.4141 41.908L68.1828 40.332ZM63.3684 33.24C64.239 33.24 65.0002 32.6735 65.6174 32.035L64.1794 30.645C63.9287 30.9043 63.7265 31.0633 63.5739 31.1531C63.4214 31.2428 63.3589 31.24 63.3684 31.24V33.24ZM65.617 32.0354C66.2809 31.3494 66.9333 30.4773 67.5783 29.4369L65.8785 28.3831C65.2836 29.3427 64.716 30.0906 64.1798 30.6446L65.617 32.0354ZM67.583 29.4294C68.2268 28.3703 68.8353 27.2036 69.4098 25.9316L67.5871 25.1084C67.0415 26.3164 66.4701 27.4097 65.8739 28.3906L67.583 29.4294ZM69.4098 25.9316C69.9862 24.6553 70.4807 23.3574 70.8929 22.0383L68.984 21.4417C68.5962 22.6826 68.1307 23.9047 67.5871 25.1084L69.4098 25.9316ZM70.8942 22.0341C71.3093 20.6851 71.5847 19.4116 71.7127 18.2165L69.7241 18.0035C69.6122 19.0484 69.3676 20.1949 68.9827 21.4459L70.8942 22.0341ZM71.3184 17.31C70.5449 16.7299 69.7816 16.2857 69.0296 16.0037L68.3273 17.8763C68.8553 18.0743 69.4519 18.4101 70.1184 18.91L71.3184 17.31ZM69.0548 16.0135C68.3176 15.7141 67.5796 15.55 66.8484 15.55V17.55C67.2773 17.55 67.7592 17.6459 68.3021 17.8665L69.0548 16.0135ZM66.8484 15.55C65.7228 15.55 64.6975 15.9061 63.8045 16.6006L65.0324 18.1794C65.5794 17.7539 66.174 17.55 66.8484 17.55V15.55ZM63.8045 16.6006C62.9474 17.2673 62.2508 18.1614 61.6977 19.2455L63.4792 20.1545C63.9261 19.2786 64.4495 18.6327 65.0324 18.1794L63.8045 16.6006ZM61.694 19.2528C61.1673 20.3062 60.7723 21.5127 60.4985 22.8609L62.4584 23.2591C62.7046 22.0473 63.0496 21.0138 63.4829 20.1472L61.694 19.2528ZM60.4985 22.8609C60.2239 24.2127 60.0884 25.6399 60.0884 27.14H62.0884C62.0884 25.7601 62.213 24.4673 62.4584 23.2591L60.4985 22.8609ZM60.0884 27.14C60.0884 28.1358 60.1731 29.0642 60.3488 29.9209L62.308 29.5191C62.1638 28.8158 62.0884 28.0242 62.0884 27.14H60.0884ZM60.3499 29.926C60.5295 30.779 60.8242 31.5354 61.2743 32.1444L62.8826 30.9556C62.6527 30.6446 62.4474 30.181 62.307 29.514L60.3499 29.926ZM61.2743 32.1444C61.781 32.83 62.4962 33.24 63.3684 33.24V31.24C63.2007 31.24 63.0559 31.19 62.8826 30.9556L61.2743 32.1444ZM89.1021 34.37L90.0213 33.9761L89.1021 34.37ZM89.0121 28.58L88.0228 28.4345L88.0217 28.4416L88.0208 28.4488L89.0121 28.58ZM89.5821 24.23L88.5902 24.1028L88.5889 24.1139L89.5821 24.23ZM89.7921 17.42L88.7958 17.5054L88.796 17.5079L89.7921 17.42ZM89.2521 15.5L88.545 14.7929L88.028 15.3099L88.3639 15.9594L89.2521 15.5ZM90.1821 14.99L89.9074 14.0284L89.8948 14.0322L90.1821 14.99ZM92.7621 15.5L91.9579 16.0944L91.9661 16.1055L91.9746 16.1163L92.7621 15.5ZM93.0321 21.41L94.0224 21.5493L94.0224 21.5493L93.0321 21.41ZM92.4321 25.1L91.449 24.9167L93.3606 25.4714L92.4321 25.1ZM93.9621 21.44L94.8789 21.8393L94.8789 21.8393L93.9621 21.44ZM95.6721 18.05L94.8131 17.5379L94.8102 17.543L95.6721 18.05ZM97.5621 15.56L98.2579 16.2782L98.2583 16.2779L97.5621 15.56ZM101.642 15.38L100.893 16.0426L100.907 16.0578L100.921 16.0725L101.642 15.38ZM102.602 17.33L101.622 17.5261L101.624 17.5378L101.627 17.5495L102.602 17.33ZM102.842 21.56L103.841 21.6L103.841 21.6L102.842 21.56ZM102.722 23.12L101.728 23.0096L101.726 23.0278L101.725 23.0461L102.722 23.12ZM102.482 25.1L101.494 24.9479L103.42 25.4478L102.482 25.1ZM105.692 17.99L104.83 17.483L104.83 17.483L105.692 17.99ZM107.582 15.53L106.908 14.791L106.903 14.7961L106.897 14.8012L107.582 15.53ZM111.692 15.38L110.943 16.0426L110.957 16.0578L110.971 16.0725L111.692 15.38ZM112.652 17.33L111.672 17.5261L111.674 17.5378L111.677 17.5495L112.652 17.33ZM112.562 24.11L111.576 23.941L111.575 23.9526L112.562 24.11ZM112.322 30.38L111.325 30.4608L111.326 30.4742L111.328 30.4875L112.322 30.38ZM112.712 32.51L111.745 32.7659L111.75 32.783L111.755 32.8L112.712 32.51ZM113.552 34.13L114.297 34.7968L114.881 34.1441L114.311 33.4792L113.552 34.13ZM112.502 34.97L112.928 35.8748L112.939 35.8698L112.949 35.8644L112.502 34.97ZM109.622 33.71L108.697 34.0908L108.7 34.0972L109.622 33.71ZM109.232 25.67L110.223 25.8022L110.223 25.8022L109.232 25.67ZM109.712 22.4L110.699 22.5611L110.7 22.558L109.712 22.4ZM109.652 18.35L108.767 18.8157L108.772 18.8258L108.778 18.8356L109.652 18.35ZM107.162 18.56L107.898 19.2371L107.905 19.2299L107.911 19.2226L107.162 18.56ZM105.752 20.6L106.625 21.0874L106.625 21.0874L105.752 20.6ZM104.372 23.48L105.293 23.8696L105.296 23.8634L104.372 23.48ZM103.172 26.66L102.223 26.3438L102.221 26.3517L102.218 26.3597L103.172 26.66ZM102.362 29.72L103.34 29.9281L103.341 29.924L102.362 29.72ZM102.212 33.8L101.233 34.004L101.237 34.0233L101.242 34.0425L102.212 33.8ZM102.572 34.79L102.918 35.7283L104.107 35.2901L103.404 34.2353L102.572 34.79ZM101.552 35.09L101.356 34.1094L101.325 34.1156L101.294 34.1238L101.552 35.09ZM99.1521 34.37L100.071 33.9761L99.1521 34.37ZM99.0621 28.7L98.0737 28.5479L98.0719 28.5607L99.0621 28.7ZM99.6321 24.56L100.625 24.6824L100.625 24.6807L99.6321 24.56ZM99.6021 18.35L98.7172 18.8157L98.7225 18.8258L98.728 18.8356L99.6021 18.35ZM97.1421 18.56L97.878 19.2371L97.8846 19.2299L97.8911 19.2226L97.1421 18.56ZM95.7021 20.6L94.8376 20.0974L94.8332 20.105L94.8289 20.1126L95.7021 20.6ZM94.3221 23.48L95.2431 23.8696L95.2457 23.8634L94.3221 23.48ZM93.1221 26.66L92.1734 26.3438L92.1708 26.3517L92.1683 26.3597L93.1221 26.66ZM92.3121 29.72L93.2902 29.9281L93.2911 29.924L92.3121 29.72ZM92.1621 33.8L91.1831 34.004L91.1872 34.0233L91.192 34.0425L92.1621 33.8ZM92.5221 34.79L92.8678 35.7283L94.0574 35.2901L93.3542 34.2353L92.5221 34.79ZM91.5021 35.09L91.306 34.1094L91.275 34.1156L91.2444 34.1238L91.5021 35.09ZM90.6621 34.21C90.3715 34.21 90.218 34.1582 90.1462 34.1195C90.092 34.0903 90.0552 34.0554 90.0213 33.9761L88.183 34.7639C88.389 35.2446 88.7322 35.6297 89.198 35.8805C89.6462 36.1218 90.1527 36.21 90.6621 36.21V34.21ZM90.0213 33.9761C89.8528 33.583 89.7421 33.0099 89.7421 32.21H87.7421C87.7421 33.1701 87.8714 34.037 88.183 34.7639L90.0213 33.9761ZM89.7421 32.21C89.7421 31.2044 89.8276 30.0396 90.0035 28.7112L88.0208 28.4488C87.8366 29.8404 87.7421 31.0956 87.7421 32.21H89.7421ZM90.0015 28.7255C90.2031 27.3546 90.3943 25.8947 90.5753 24.3461L88.5889 24.1139C88.4099 25.6453 88.2211 27.0854 88.0228 28.4345L90.0015 28.7255ZM90.574 24.3572C90.7794 22.7548 90.8821 21.1423 90.8821 19.52H88.8821C88.8821 21.0577 88.7848 22.5852 88.5902 24.1028L90.574 24.3572ZM90.8821 19.52C90.8821 18.7722 90.851 18.0429 90.7882 17.3321L88.796 17.5079C88.8533 18.1571 88.8821 18.8278 88.8821 19.52H90.8821ZM90.7885 17.3346C90.7181 16.5141 90.505 15.7456 90.1403 15.0406L88.3639 15.9594C88.5992 16.4144 88.7461 16.9259 88.7958 17.5054L90.7885 17.3346ZM89.9592 16.2071C90.029 16.1373 90.1759 16.0359 90.4695 15.9478L89.8948 14.0322C89.3883 14.1841 88.9152 14.4227 88.545 14.7929L89.9592 16.2071ZM90.4568 15.9515C90.8315 15.8445 91.0817 15.81 91.2321 15.81V13.81C90.8225 13.81 90.3728 13.8955 89.9074 14.0285L90.4568 15.9515ZM91.2321 15.81C91.6626 15.81 91.8434 15.9394 91.9579 16.0944L93.5663 14.9056C93.0008 14.1406 92.1616 13.81 91.2321 13.81V15.81ZM91.9746 16.1163C92.1133 16.2935 92.3021 16.8128 92.3021 17.96H94.3021C94.3021 16.7472 94.1309 15.6265 93.5496 14.8837L91.9746 16.1163ZM92.3021 17.96C92.3021 18.923 92.217 20.0253 92.0419 21.2707L94.0224 21.5493C94.2072 20.2347 94.3021 19.037 94.3021 17.96H92.3021ZM92.0419 21.2707C91.8638 22.5371 91.6661 23.7524 91.449 24.9167L93.4152 25.2833C93.6381 24.0876 93.8405 22.8429 94.0224 21.5493L92.0419 21.2707ZM93.3606 25.4714C93.8367 24.2812 94.3428 23.0705 94.8789 21.8393L93.0453 21.0407C92.5014 22.2895 91.9875 23.5188 91.5036 24.7286L93.3606 25.4714ZM94.8789 21.8393C95.4051 20.6311 95.9571 19.5377 96.534 18.557L94.8102 17.543C94.1871 18.6023 93.5992 19.7689 93.0453 21.0407L94.8789 21.8393ZM96.5311 18.5621C97.1209 17.5726 97.6991 16.8196 98.2579 16.2782L96.8663 14.8418C96.1451 15.5404 95.4633 16.4474 94.8132 17.5379L96.5311 18.5621ZM98.2583 16.2779C98.7989 15.7537 99.2326 15.6 99.5721 15.6V13.6C98.5516 13.6 97.6453 14.0863 96.866 14.8421L98.2583 16.2779ZM99.5721 15.6C100.304 15.6 100.68 15.8012 100.893 16.0426L102.391 14.7174C101.685 13.9188 100.68 13.6 99.5721 13.6V15.6ZM100.921 16.0725C101.247 16.4123 101.492 16.8793 101.622 17.5261L103.583 17.1339C103.392 16.1807 102.997 15.3477 102.363 14.6875L100.921 16.0725ZM101.627 17.5495C101.79 18.2757 101.872 19.022 101.872 19.79H103.872C103.872 18.878 103.774 17.9843 103.578 17.1105L101.627 17.5495ZM101.872 19.79C101.872 20.461 101.862 21.0371 101.843 21.52L103.841 21.6C103.862 21.0829 103.872 20.479 103.872 19.79H101.872ZM101.843 21.52C101.824 21.9946 101.786 22.491 101.728 23.0096L103.716 23.2304C103.778 22.669 103.82 22.1254 103.841 21.6L101.843 21.52ZM101.725 23.0461C101.687 23.5511 101.611 24.1833 101.494 24.9479L103.47 25.2521C103.593 24.4567 103.677 23.7689 103.719 23.1939L101.725 23.0461ZM103.42 25.4478C103.873 24.2255 104.366 23.0027 104.899 21.7793L103.065 20.9807C102.518 22.2373 102.011 23.4945 101.545 24.7522L103.42 25.4478ZM104.899 21.7793C105.425 20.5711 105.977 19.4777 106.554 18.497L104.83 17.483C104.207 18.5423 103.619 19.7089 103.065 20.9807L104.899 21.7793ZM106.554 18.497C107.12 17.5354 107.694 16.7973 108.267 16.2588L106.897 14.8012C106.151 15.5027 105.465 16.4046 104.83 17.483L106.554 18.497ZM108.256 16.269C108.818 15.7568 109.268 15.6 109.622 15.6V13.6C108.616 13.6 107.707 14.0632 106.908 14.791L108.256 16.269ZM109.622 15.6C110.354 15.6 110.73 15.8012 110.943 16.0426L112.441 14.7174C111.735 13.9188 110.73 13.6 109.622 13.6V15.6ZM110.971 16.0725C111.297 16.4123 111.542 16.8793 111.672 17.5261L113.633 17.1339C113.442 16.1807 113.047 15.3477 112.413 14.6875L110.971 16.0725ZM111.677 17.5495C111.84 18.2757 111.922 19.022 111.922 19.79H113.922C113.922 18.878 113.824 17.9843 113.628 17.1105L111.677 17.5495ZM111.922 19.79C111.922 21.2157 111.807 22.5991 111.576 23.941L113.548 24.279C113.798 22.8209 113.922 21.3243 113.922 19.79H111.922ZM111.575 23.9526C111.346 25.3876 111.232 26.8704 111.232 28.4H113.232C113.232 26.9696 113.338 25.5924 113.55 24.2674L111.575 23.9526ZM111.232 28.4C111.232 29.0132 111.264 29.701 111.325 30.4608L113.319 30.2992C113.26 29.579 113.232 28.9468 113.232 28.4H111.232ZM111.328 30.4875C111.413 31.2747 111.552 32.0345 111.745 32.7659L113.679 32.2541C113.512 31.6255 113.391 30.9653 113.316 30.2725L111.328 30.4875ZM111.755 32.8C111.986 33.5609 112.323 34.233 112.793 34.7808L114.311 33.4792C114.061 33.187 113.839 32.7791 113.669 32.22L111.755 32.8ZM112.807 33.4632C112.529 33.7733 112.276 33.9648 112.055 34.0756L112.949 35.8644C113.448 35.6152 113.895 35.2467 114.297 34.7968L112.807 33.4632ZM112.076 34.0652C111.855 34.1692 111.66 34.21 111.482 34.21V36.21C111.984 36.21 112.469 36.0908 112.928 35.8748L112.076 34.0652ZM111.482 34.21C111.293 34.21 111.156 34.1587 111.03 34.0566C110.887 33.9414 110.712 33.7227 110.544 33.3228L108.7 34.0972C108.952 34.6973 109.297 35.2286 109.774 35.6134C110.268 36.0113 110.851 36.21 111.482 36.21V34.21ZM110.547 33.3292C110.199 32.4854 109.992 31.1967 109.992 29.39H107.992C107.992 31.3033 108.205 32.8946 108.697 34.0908L110.547 33.3292ZM109.992 29.39C109.992 28.1517 110.07 26.9559 110.223 25.8022L108.241 25.5378C108.075 26.7841 107.992 28.0683 107.992 29.39H109.992ZM110.223 25.8022C110.382 24.6098 110.541 23.5297 110.699 22.5611L108.725 22.2389C108.563 23.2303 108.402 24.3302 108.241 25.5378L110.223 25.8022ZM110.7 22.558C110.863 21.534 110.952 20.6654 110.952 19.97H108.952C108.952 20.5146 108.881 21.266 108.725 22.242L110.7 22.558ZM110.952 19.97C110.952 19.1902 110.849 18.4461 110.526 17.8644L108.778 18.8356C108.855 18.9739 108.952 19.3098 108.952 19.97H110.952ZM110.537 17.8843C110.098 17.0498 109.256 16.78 108.452 16.78V18.78C108.654 18.78 108.746 18.8129 108.773 18.8258C108.784 18.8311 108.783 18.8321 108.776 18.8256C108.769 18.8189 108.766 18.8136 108.767 18.8157L110.537 17.8843ZM108.452 16.78C107.613 16.78 106.931 17.3122 106.413 17.8974L107.911 19.2226C108.098 19.0116 108.244 18.8927 108.347 18.8307C108.446 18.7712 108.476 18.78 108.452 18.78V16.78ZM106.426 17.8829C105.895 18.46 105.382 19.2119 104.879 20.1126L106.625 21.0874C107.083 20.2681 107.509 19.66 107.898 19.2371L106.426 17.8829ZM104.879 20.1126C104.377 21.0113 103.901 22.0067 103.449 23.0966L105.296 23.8634C105.723 22.8333 106.167 21.9087 106.625 21.0874L104.879 20.1126ZM103.451 23.0904C103.001 24.1547 102.592 25.2391 102.223 26.3438L104.121 26.9762C104.473 25.9208 104.863 24.8853 105.293 23.8696L103.451 23.0904ZM102.218 26.3597C101.87 27.4667 101.591 28.519 101.383 29.516L103.341 29.924C103.533 29.001 103.794 28.0133 104.126 26.9603L102.218 26.3597ZM101.384 29.5119C101.175 30.4947 101.062 31.378 101.062 32.15H103.062C103.062 31.562 103.149 30.8253 103.34 29.9281L101.384 29.5119ZM101.062 32.15C101.062 32.8214 101.116 33.442 101.233 34.004L103.191 33.596C103.108 33.198 103.062 32.7186 103.062 32.15H101.062ZM101.242 34.0425C101.363 34.5275 101.516 35.008 101.74 35.3447L103.404 34.2353C103.407 34.2398 103.379 34.196 103.332 34.0658C103.287 33.9434 103.237 33.7763 103.182 33.5575L101.242 34.0425ZM102.226 33.8517C101.881 33.9791 101.592 34.0622 101.356 34.1094L101.748 36.0706C102.112 35.9978 102.504 35.8809 102.918 35.7283L102.226 33.8517ZM101.294 34.1238C101.063 34.1855 100.87 34.21 100.712 34.21V36.21C101.074 36.21 101.441 36.1545 101.81 36.0562L101.294 34.1238ZM100.712 34.21C100.422 34.21 100.268 34.1582 100.196 34.1195C100.142 34.0903 100.105 34.0554 100.071 33.9761L98.233 34.7639C98.439 35.2446 98.7822 35.6297 99.248 35.8805C99.6962 36.1218 100.203 36.21 100.712 36.21V34.21ZM100.071 33.9761C99.9028 33.583 99.7921 33.0099 99.7921 32.21H97.7921C97.7921 33.1701 97.9214 34.037 98.233 34.7639L100.071 33.9761ZM99.7921 32.21C99.7921 31.2054 99.8775 30.0827 100.052 28.8393L98.0719 28.5607C97.8867 29.8773 97.7921 31.0946 97.7921 32.21H99.7921ZM100.05 28.8521C100.252 27.5411 100.444 26.1511 100.625 24.6824L98.6396 24.4376C98.4607 25.8889 98.2721 27.2589 98.0737 28.5479L100.05 28.8521ZM100.625 24.6807C100.81 23.1584 100.902 21.588 100.902 19.97H98.9021C98.9021 21.512 98.8143 23.0016 98.6394 24.4393L100.625 24.6807ZM100.902 19.97C100.902 19.1902 100.799 18.4461 100.476 17.8644L98.728 18.8356C98.8047 18.9739 98.9021 19.3098 98.9021 19.97H100.902ZM100.487 17.8843C100.054 17.0613 99.2333 16.78 98.4321 16.78V18.78C98.6191 18.78 98.701 18.8114 98.7216 18.8215C98.7301 18.8256 98.7278 18.8257 98.7217 18.8198C98.7155 18.8138 98.7144 18.8104 98.7172 18.8157L100.487 17.8843ZM98.4321 16.78C97.5933 16.78 96.9108 17.3122 96.3931 17.8974L97.8911 19.2226C98.0777 19.0116 98.2245 18.8927 98.327 18.8307C98.4256 18.7712 98.4558 18.78 98.4321 18.78V16.78ZM96.4062 17.8829C95.8802 18.4546 95.3589 19.2008 94.8376 20.0974L96.5666 21.1026C97.0453 20.2792 97.484 19.6654 97.878 19.2371L96.4062 17.8829ZM94.8289 20.1126C94.3274 21.0113 93.8509 22.0067 93.3985 23.0966L95.2457 23.8634C95.6733 22.8333 96.1169 21.9087 96.5753 21.0874L94.8289 20.1126ZM93.4011 23.0904C92.9509 24.1547 92.5416 25.2391 92.1734 26.3438L94.0708 26.9762C94.4226 25.9208 94.8134 24.8853 95.2431 23.8696L93.4011 23.0904ZM92.1683 26.3597C91.8198 27.4667 91.5408 28.519 91.3331 29.516L93.2911 29.924C93.4834 29.001 93.7444 28.0133 94.076 26.9603L92.1683 26.3597ZM91.334 29.5119C91.1249 30.4947 91.0121 31.378 91.0121 32.15H93.0121C93.0121 31.562 93.0993 30.8253 93.2902 29.9281L91.334 29.5119ZM91.0121 32.15C91.0121 32.8214 91.0661 33.442 91.1831 34.004L93.1411 33.596C93.0582 33.198 93.0121 32.7186 93.0121 32.15H91.0121ZM91.192 34.0425C91.3132 34.5275 91.4656 35.008 91.6901 35.3447L93.3542 34.2353C93.3572 34.2398 93.3293 34.196 93.2819 34.0658C93.2374 33.9434 93.187 33.7763 93.1323 33.5575L91.192 34.0425ZM92.1764 33.8517C91.8305 33.9791 91.5419 34.0622 91.306 34.1094L91.6982 36.0706C92.0624 35.9978 92.4537 35.8809 92.8678 35.7283L92.1764 33.8517ZM91.2444 34.1238C91.0128 34.1855 90.8202 34.21 90.6621 34.21V36.21C91.024 36.21 91.3915 36.1545 91.7598 36.0562L91.2444 34.1238ZM118.425 31.4L117.495 31.7689L117.5 31.7815L118.425 31.4ZM118.095 23.72L117.125 23.4774L117.122 23.4891L118.095 23.72ZM119.355 20.27L118.457 19.8293L118.457 19.8293L119.355 20.27ZM121.365 17.33L122.097 18.0111L122.105 18.0027L121.365 17.33ZM124.065 15.26L124.512 16.1545L124.519 16.1509L124.065 15.26ZM130.965 15.68L131.69 14.9912L131.69 14.9912L130.965 15.68ZM131.445 21.29L130.539 20.866L130.535 20.8747L131.445 21.29ZM129.555 23.87L128.865 23.1458L128.856 23.1542L129.555 23.87ZM126.555 25.82L126.945 26.7408L126.945 26.7408L126.555 25.82ZM120.915 26.48L121.025 25.4861L119.895 25.3605L119.915 26.4979L120.915 26.48ZM122.175 31.58L121.352 32.1478L121.356 32.1544L122.175 31.58ZM128.205 32.57L128.739 33.4155L128.747 33.4105L128.754 33.4054L128.205 32.57ZM130.065 30.26L130.74 29.5228L129.731 28.5973L129.157 29.8409L130.065 30.26ZM130.605 31.07L129.668 31.4211L129.672 31.4313L129.676 31.4414L130.605 31.07ZM130.215 33.56L130.972 34.2136L130.979 34.2053L130.986 34.1969L130.215 33.56ZM128.745 34.67L129.18 35.5706L129.192 35.5644L128.745 34.67ZM126.855 35.3L126.653 34.3205L126.647 34.3218L126.855 35.3ZM125.985 23.87L126.453 24.7533L126.453 24.7533L125.985 23.87ZM128.205 21.92L129.047 22.4597L129.053 22.45L128.205 21.92ZM128.235 17.57L127.476 18.2208L127.481 18.2276L127.487 18.2344L128.235 17.57ZM123.735 17.51L124.375 18.2782L124.377 18.2762L123.735 17.51ZM122.265 19.49L123.168 19.9191L123.172 19.9105L122.265 19.49ZM121.395 22.04L120.419 21.8231L120.419 21.8231L121.395 22.04ZM120.975 24.56L119.98 24.458L119.88 25.431L120.851 25.5523L120.975 24.56ZM124.995 34.51C123.437 34.51 122.26 34.1714 121.39 33.5751L120.26 35.2249C121.549 36.1086 123.153 36.51 124.995 36.51V34.51ZM121.39 33.5751C120.477 32.9495 119.798 32.1068 119.349 31.0185L117.5 31.7815C118.091 33.2132 119.012 34.3705 120.26 35.2249L121.39 33.5751ZM119.354 31.0312C118.906 29.9019 118.675 28.639 118.675 27.23H116.675C116.675 28.861 116.943 30.3781 117.495 31.7688L119.354 31.0312ZM118.675 27.23C118.675 26.1512 118.805 25.0587 119.068 23.9509L117.122 23.4891C116.825 24.7413 116.675 25.9888 116.675 27.23H118.675ZM119.065 23.9625C119.348 22.8303 119.744 21.7468 120.252 20.7107L118.457 19.8293C117.886 20.9932 117.442 22.2097 117.125 23.4775L119.065 23.9625ZM120.252 20.7107C120.751 19.6947 121.366 18.7964 122.097 18.0111L120.633 16.6489C119.763 17.5836 119.038 18.6453 118.457 19.8293L120.252 20.7107ZM122.105 18.0027C122.827 17.2081 123.629 16.5958 124.512 16.1544L123.618 14.3656C122.5 14.9242 121.503 15.6919 120.625 16.6573L122.105 18.0027ZM124.519 16.1509C125.389 15.7073 126.352 15.48 127.425 15.48V13.48C126.058 13.48 124.78 13.7727 123.611 14.3691L124.519 16.1509ZM127.425 15.48C128.875 15.48 129.74 15.8426 130.24 16.3687L131.69 14.9912C130.67 13.9174 129.174 13.48 127.425 13.48V15.48ZM130.24 16.3687C130.82 16.9798 131.105 17.6921 131.105 18.56H133.105C133.105 17.1879 132.629 15.9802 131.69 14.9912L130.24 16.3687ZM131.105 18.56C131.105 19.2695 130.928 20.0352 130.539 20.8661L132.35 21.7139C132.842 20.6648 133.105 19.6105 133.105 18.56H131.105ZM130.535 20.8747C130.175 21.6629 129.626 22.421 128.865 23.1459L130.244 24.5941C131.163 23.719 131.874 22.7571 132.354 21.7053L130.535 20.8747ZM128.856 23.1542C128.135 23.8576 127.244 24.4421 126.165 24.8992L126.945 26.7408C128.226 26.1979 129.334 25.4824 130.253 24.5858L128.856 23.1542ZM126.165 24.8992C125.127 25.3388 123.923 25.57 122.535 25.57V27.57C124.146 27.57 125.622 27.3012 126.945 26.7408L126.165 24.8992ZM122.535 25.57C122.032 25.57 121.529 25.5421 121.025 25.4861L120.804 27.4739C121.381 27.5379 121.958 27.57 122.535 27.57V25.57ZM119.915 26.4979C119.957 28.8282 120.392 30.7562 121.352 32.1477L122.998 31.0123C122.358 30.0838 121.953 28.6118 121.915 26.4621L119.915 26.4979ZM121.356 32.1544C122.354 33.5761 123.798 34.29 125.565 34.29V32.29C124.412 32.29 123.596 31.8639 122.993 31.0056L121.356 32.1544ZM125.565 34.29C126.732 34.29 127.801 34.0075 128.739 33.4155L127.671 31.7245C127.088 32.0925 126.398 32.29 125.565 32.29V34.29ZM128.754 33.4054C129.706 32.7793 130.435 31.845 130.973 30.6791L129.157 29.8409C128.735 30.755 128.223 31.3607 127.655 31.7346L128.754 33.4054ZM129.389 30.9972C129.507 31.1055 129.601 31.241 129.668 31.4211L131.541 30.7189C131.369 30.259 131.102 29.8545 130.74 29.5228L129.389 30.9972ZM129.676 31.4414C129.756 31.6412 129.785 31.8052 129.785 31.94H131.785C131.785 31.5148 131.693 31.0988 131.533 30.6986L129.676 31.4414ZM129.785 31.94C129.785 32.3374 129.67 32.6498 129.444 32.9231L130.986 34.1969C131.52 33.5502 131.785 32.7826 131.785 31.94H129.785ZM129.458 32.9064C129.176 33.2323 128.797 33.5256 128.298 33.7756L129.192 35.5644C129.892 35.2144 130.493 34.7677 130.972 34.2136L129.458 32.9064ZM128.31 33.7694C127.81 34.011 127.259 34.1959 126.653 34.3205L127.056 36.2795C127.811 36.1241 128.52 35.889 129.18 35.5706L128.31 33.7694ZM126.647 34.3218C126.045 34.4496 125.495 34.51 124.995 34.51V36.51C125.655 36.51 126.345 36.4304 127.062 36.2782L126.647 34.3218ZM122.325 25.65C123.898 25.65 125.291 25.3703 126.453 24.7533L125.516 22.9867C124.719 23.4097 123.671 23.65 122.325 23.65V25.65ZM126.453 24.7533C127.555 24.1687 128.437 23.4105 129.047 22.4597L127.363 21.3803C126.972 21.9895 126.374 22.5313 125.516 22.9867L126.453 24.7533ZM129.053 22.45C129.631 21.5246 129.955 20.5533 129.955 19.55H127.955C127.955 20.1067 127.778 20.7154 127.357 21.39L129.053 22.45ZM129.955 19.55C129.955 18.5462 129.638 17.6439 128.982 16.9056L127.487 18.2344C127.791 18.5761 127.955 18.9938 127.955 19.55H129.955ZM128.994 16.9192C128.263 16.0662 127.197 15.73 126.015 15.73V17.73C126.832 17.73 127.247 17.9538 127.476 18.2208L128.994 16.9192ZM126.015 15.73C124.908 15.73 123.913 16.0556 123.092 16.7438L124.377 18.2762C124.797 17.9244 125.322 17.73 126.015 17.73V15.73ZM123.095 16.7418C122.364 17.3503 121.79 18.1363 121.357 19.0695L123.172 19.9105C123.5 19.2037 123.905 18.6697 124.375 18.2782L123.095 16.7418ZM121.361 19.0609C120.948 19.9314 120.634 20.8528 120.419 21.8231L122.371 22.2569C122.555 21.4272 122.822 20.6486 123.168 19.9191L121.361 19.0609ZM120.419 21.8231C120.212 22.7546 120.065 23.6333 119.98 24.458L121.97 24.662C122.045 23.9267 122.178 23.1254 122.371 22.2569L120.419 21.8231ZM120.851 25.5523C121.366 25.6167 121.858 25.65 122.325 25.65V23.65C121.952 23.65 121.544 23.6233 121.099 23.5677L120.851 25.5523Z" fill="#AE722D" mask="url(#path-1-outside-1_88_2)"/>
<g filter="url(#filter1_i_88_2)">
<path d="M153.061 53.0607C153.646 52.4749 153.646 51.5251 153.061 50.9393L143.515 41.3934C142.929 40.8076 141.979 40.8076 141.393 41.3934C140.808 41.9792 140.808 42.9289 141.393 43.5147L149.879 52L141.393 60.4853C140.808 61.0711 140.808 62.0208 141.393 62.6066C141.979 63.1924 142.929 63.1924 143.515 62.6066L153.061 53.0607ZM0 53.5H152V50.5H0V53.5Z" fill="#AE722D"/>
</g>
<defs>
<filter id="filter0_i_88_2" x="2.04004" y="6.89001" width="130.065" height="39.73" filterUnits="userSpaceOnUse" color-interpolation-filters="sRGB">
<feFlood flood-opacity="0" result="BackgroundImageFix"/>
<feBlend mode="normal" in="SourceGraphic" in2="BackgroundImageFix" result="shape"/>
<feColorMatrix in="SourceAlpha" type="matrix" values="0 0 0 0 0 0 0 0 0 0 0 0 0 0 0 0 0 0 127 0" result="hardAlpha"/>
<feOffset dy="4"/>
<feGaussianBlur stdDeviation="2"/>
<feComposite in2="hardAlpha" operator="arithmetic" k2="-1" k3="1"/>
<feColorMatrix type="matrix" values="0 0 0 0 0 0 0 0 0 0 0 0 0 0 0 0 0 0 0.25 0"/>
<feBlend mode="normal" in2="shape" result="effect1_innerShadow_88_2"/>
</filter>
<filter id="filter1_i_88_2" x="0" y="40.9541" width="153.5" height="26.0918" filterUnits="userSpaceOnUse" color-interpolation-filters="sRGB">
<feFlood flood-opacity="0" result="BackgroundImageFix"/>
<feBlend mode="normal" in="SourceGraphic" in2="BackgroundImageFix" result="shape"/>
<feColorMatrix in="SourceAlpha" type="matrix" values="0 0 0 0 0 0 0 0 0 0 0 0 0 0 0 0 0 0 127 0" result="hardAlpha"/>
<feOffset dy="4"/>
<feGaussianBlur stdDeviation="2"/>
<feComposite in2="hardAlpha" operator="arithmetic" k2="-1" k3="1"/>
<feColorMatrix type="matrix" values="0 0 0 0 0 0 0 0 0 0 0 0 0 0 0 0 0 0 0.25 0"/>
<feBlend mode="normal" in2="shape" result="effect1_innerShadow_88_2"/>
</filter>
</defs>
</svg>
